<mxfile host="app.diagrams.net" modified="2021-08-05T14:35:21.918Z" agent="5.0 (X11)" etag="18QEUkjHJqv5qAhLwezy" version="14.9.4" type="github">
  <diagram id="QZxNz7zhBMsz-49ivCJ6" name="Page-1">
    <mxGraphModel dx="1355" dy="793" grid="1" gridSize="10" guides="1" tooltips="1" connect="1" arrows="1" fold="1" page="1" pageScale="1" pageWidth="850" pageHeight="1100" math="0" shadow="0">
      <root>
        <mxCell id="0" />
        <mxCell id="1" parent="0" />
        <mxCell id="8UH31n_FKA3EFoD4OGH5-1" value="" style="shape=image;verticalLabelPosition=bottom;labelBackgroundColor=#ffffff;verticalAlign=top;aspect=fixed;imageAspect=0;image=data:image/jpeg,/9j/4AAQSkZJRgABAQAAAQABAAD/2wBDAAgGBgcGBQgHBwcJCQgKDBQNDAsLDBkSEw8UHRofHh0aHBwgJC4nICIsIxwcKDcpLDAxNDQ0Hyc5PTgyPC4zNDL/2wBDAQkJCQwLDBgNDRgyIRwhMjIyMjIyMjIyMjIyMjIyMjIyMjIyMjIyMjIyMjIyMjIyMjIyMjIyMjIyMjIyMjIyMjL/wAARCAEAAQADASIAAhEBAxEB/8QAHwAAAQUBAQEBAQEAAAAAAAAAAAECAwQFBgcICQoL/8QAtRAAAgEDAwIEAwUFBAQAAAF9AQIDAAQRBRIhMUEGE1FhByJxFDKBkaEII0KxwRVS0fAkM2JyggkKFhcYGRolJicoKSo0NTY3ODk6Q0RFRkdISUpTVFVWV1hZWmNkZWZnaGlqc3R1dnd4eXqDhIWGh4iJipKTlJWWl5iZmqKjpKWmp6ipqrKztLW2t7i5usLDxMXGx8jJytLT1NXW19jZ2uHi4+Tl5ufo6erx8vP09fb3+Pn6/8QAHwEAAwEBAQEBAQEBAQAAAAAAAAECAwQFBgcICQoL/8QAtREAAgECBAQDBAcFBAQAAQJ3AAECAxEEBSExBhJBUQdhcRMiMoEIFEKRobHBCSMzUvAVYnLRChYkNOEl8RcYGRomJygpKjU2Nzg5OkNERUZHSElKU1RVVldYWVpjZGVmZ2hpanN0dXZ3eHl6goOEhYaHiImKkpOUlZaXmJmaoqOkpaanqKmqsrO0tba3uLm6wsPExcbHyMnK0tPU1dbX2Nna4uPk5ebn6Onq8vP09fb3+Pn6/9oADAMBAAIRAxEAPwD0OL5fWr0LVRjuB6Cm3WpbF8qBd0rcD2rzz1izqF+2RY2ah7mXjPZB6mrek+H7XTbWdVy8syEOx55x2qLSLAWimWT5riTlmP8AKtsN8lUjKpfZHPzu091afxbof5jFdiowoHoK4e0l829iI/5ZqF/8fxXc1vQ3ZjiOiCiiiug5QooooAKKKKACiiigAooooA5rXPDF7e3zX+j6w+l3cqLHM6wrIJVX7uc8gjJq9p2iSWttsvtTu9QlYDc8jbACBzgL0B/GtckAZPAoqeVF87tYx4NBs4YJFukFyTIzBpSWIXsOfSs9rDTEn+SygH/ABW9dSlGCdAwrxv4lfEJNB+06TYnOoPHjzFb/AFWc8/XHP41zzXPLlR0UnZOUj08RWijCwQr9EAqpciMDhVH0FfKU3ibXbiRJJNXvWdPukzNxXqPw/wDiVcX0iaTrsqtKflt7huC5/ut7+9TOi0rmlOqm9Tf8W+FdP1vULS4vPNYg+XsV8LjBPSp4LIPLHp0C7UOPMxxhB2rY1KQC4tfl6s7fkv8A9erOj2OxZLlx88h49hUc2hvbUkh0+O22+SoVBxtHatSIDApFXHHanqMVFxlqPGavQDpVCI1fgq4nLVLa9KdTV6Utd0djjGv0qhc96vueKz7jvXLVd2bUtzkGJA2KMmr2nWCofOcAuemaSC3BO48itBTj6e1YneWFFSFsJUAfFKX+Q00Q43OatWMYvyOqE4/77zXoQPyj6V58oL3GrJ0xgj8dprvlb5FOewram7NnNXWxJmlpgNOBrojK5zWKw1K0OqHTPPX7aIRP5XfZnG786tVzUEMUnxHurk582LTUixnjaXLZ/P8AlV3xLfalYaV52lW5nud4G3yy+B34BBo5tGyuS7SXU2KK8I1Lx741tIZ7W+jkiR87ZTbmN156giorT4q+IBaRJLMsjxzB97IAWUZypx1B/Oo9tE1+rTPfKK8Ob4x6yzk+Vaxpn/nkSPpnNb1h8ZImQC807Ld2glH8j/jR7aIPDVOh6nRXEQ/FPw9LC7ObmJ1UkI8ec8dMjNb2h+J9M12ygmguYVmkQM1uZBvQ9wR7VanF7MylTnHdGvIu+Mr602eeK2geeeRIokG53c4Cj1Jqvq1xLa6ReT29vLcTRwsyQxffc44A968z8Xa/q+t+BNYOr6NfeHLWCNXS5adS0r5wEKAcgk4pt2Eo3Og+IPiqDRPCT6taXEcrORHbsjBlZj3yPTB/KvlC/upr29lubiRpJZWLO7Hkk12U+vtqvw5sdInmllns7xnyR8ojI4A/HNcfdx7cMFIU9BWUdGzdp8hXDZqV7p38oZI8r7hHUd6gHXrSjlvetDI+lfDtzJrum6BdTA75bZmfPcgAE12aIFXA4ArkvBfl/wDCP+HGjBVTZNww5/hz/WuwBGK4Jbnox2DbkUgGDThSjrSHcmiq/COBVBOKvwHgVcTmqllelKTTQaM10qWhyCOeKz7hutXpDgVmXDc1hUep0UVqctD4s8PHgazYkf8AXZf8auL4h0V/u6tZH/tuv+NUD4W8Pt97RrE/9sF/wpD4O8Nt10Sy/wC/QqfdOxRl3NddY0twNuo2h+ky/wCNPGoWZB23cDfSRT/WsFvAvhh/+YLa/gpFRt8PvCzf8wqMf7rsP60tA5ZF+K4t2vdSCzR5MCsfnHqRXZrcw+WuJUPA6MDXnJ+G/hc8iwdf924cf1pR8O/D6/6sXqf7t5IP61d0jGdKUtz0lJVYZBJ+gqTf/ssfwrzUeAtLX/V3urR/7t8/+NSr4PSMAQ67rkeOn+mE/wA6anYh4Z9y1b69ND8UNRgTS7u5SZIbfzYgCsQUZZmyeg3DpXfZry2DwM1rdyXdp4i1eCeQku6yKS2eueK0I9F1+H/V+M9U9hJFE/8ANa0jVSJlh5PY6XxJbeIL1IodEnsYYmBEzXKFz7YGCPzrkrX4O6c0rz6jqVxPJIdzLCixLnvjrV77J4qC4Xxc5x3bT4Sf5VE9p4x/g8VxD2OnIP5Gk5wbuy406sVZNHW6d4Z0fS9NXT7awg+zj7wdAxc+rE9TXPa38KvDOrozQWx064PSS1+UZ916Gs0R/ECIkx+J9PkB7S2H+Bp63fxFj/5iOgS/71rIv8mq+em0ZezrJ3R5/r3wv8U6Dvns9uqWi85gGJAPdD/TNcYmqywylJEeOVTyCCGU/wBK92XWPiDH96Lw9L9PNWsLxBp+ueIlJ1LwpoM0p6Tw3Txyf99Y5/HNZy9m9joi6y3RymjfETW7SI28eoyhCMAS4fb9CelafizVNI8V6JdSPe6lb6m1vHH9lM2bebYQenQE9cn0rl5fh74rjlbybKPZngeepwPrxmopvDXijT4zJcaVKyDqYiHI/AUk3HZlOEZbo6HWvBtivw/0yDw+YLi+j/f3hSQb3yvOcnqMgfhXmt/ZNLbblHKjpWlLqbxkp88ci8FTkEVdsrN7mE7RnPY1PM46spU1L3UcTJb3NxKSsGWC8rGvQAegrtPh/wCCX1W+W+1K3IsU5VHGPNb/AAq1bafeaDMb+NY1IUqC4yOeK77wT4mg14Na3cUcN/B95UPDqO4/rVuq5R90yVBQl7x0ozHf2UaBVVIpAoAwAPlHFaccz4qq8MZ1WDaflEEh/VKtrEMcNWDN0iVZT3FSo+agVD/eFTKCKkdi0jVdhbpVCMHNW4utWjmqJF4HilzUanigtV8xy2GTNxWdO1XZTWfN1qJM6aKM4NSg81CD708H3pHYTBqdn3qENS7unNAybNLmoQ3NKGxQImBpc1CHpd1AWJQaN1RB+tKGpCsS5pCaj3A0bqAsP3UZ96jLUm/FA7D801jimFuKQtQMUnvTC3ekLe+KjdjtODzjg+lAjj/HUvhe2tVbW7ZJZ3/1Yj4lPvkdvrXl0WqX/kyS6epjtI22lgu7ZnpuPrx+lUPEWs3Gr63c3F04dg5RcdAAcDAqCw1a602O4W1dl84AEA9CDw2PUcj8a61TVrPU5HVd77Gs3ibUWtmgmaKRCMHelZ+m3s9nqUNzFK0Lh+ZE4IBPOKqNIHYMoYKQOG6570/IAGOpOKpQiloJyct2fScQH26Mbi221HzN1OT1/SrYA9arW0OLmI9/safzNXPKODXEzqQLkdzUyE8VEemKkU0hlqNjVuNqooeasxt0powqIu78CjfUO7igNzVXMOUSU1RlNWpWBqjM3WpZvSRlBgKcGqANTg1M6ScN6GnBsVBupQ9AXJ99JuqEvQG9TQJk+73pQ/vVYPTt9AEwenb6rK/Wjfg0CuWQ9G/mq++k39OaLAWd9Jv96g3e1G+gZNvz2pCw71DvpC/pQBKW9643xz4yg8PWElpE5OpTRZiAGQoPGT+tdYz188eO7mafxjqfn5JWYoueyjoPyrSlFNmNabjHQn0aC2eNPPiVy43MWHc1Nr3h2K2tDf2JwqDMkZOcD1FVtMJ+ywOOPlAra1K4P/CP3YPTyiKlykpqzNFGLpO6OME4k2/KFxUgb94PaqUZxitSyjjuDHCisZpDjJ7knAArsZxRZ9M2rbrmA+tov86tkccdaz7YlLyJTwVttv6ir24HvXns7UFKmc00+9C560iiypqwhqohzVhTimmZTROW4pN1RFqTdTuRyiyNVSYjBqV296qzNSZrFWMcNzTt3vVfdzTt/NWWWN9G+oN9G73oETb6XfUAb3pd3WgCcPxRuH41CDSg0AShzik35qLcKN1AEwfnrSbucVET70Bsd+aAJg/60u+q4fPNKHoAm3etJu561FvzSbqQyUtzXjnxY0tINZttQiXAuoyJOOCy9/rjH5V675mc15f8WtRB+wWCyLkbpXQdR2H9a1pfEY1rchgaTFu0uFh97GAAOtT604j8Oz9Pm2j9aj0Wzkn0yJXDbMZ4pnik+RpkUH95/wCVQtaljR3jRbfY5FScda6vwBayXfieziXDIJBK+RnAT5v54rlB6Y/CvUfhRpoBvNTY9MQKPyJ/pXVUdonFTV5HqkUx/tQj0gH/AKFWirbk61hwNjWJvaBOP+BNWpHJkVws7UyznilU+3X3qItTlbmkUWkNTA8VWRu1TA8UImSHsabmkJpM0xJCN0qrMOtWHYYqu5zxSKRz5PApS3SkYZUUY+WtQHZozSEHAo5oAdmjNN7Uc5pAPDcUbvem9KOaBDt1G7imnPpSUDH5pN3NN5ooAduo3ZxzVa6u4LKEy3EgRR61zEvjuz810jzhTwV70m+xUY33djsN3ajJ615de+Nbp9WiltZJmA+UQqOGJ6Vbk1TxjdrldLmUHpuGP50Wn0Qe51Z38t3DChLSD6CuH1Wx0i81qXU74iR2AVUY/KoHTjvWLrC+J7LS2vb5TFGG2su4cA9OhrjbjVriX70jH61SpTl1IlWpw6HoN94isLeIJBGpIwoA4xXH+Jb9Ly8RFIKIOD65rHieeeQAdTUr2lxHM8cissinDKxwQfSt6WHUNUc9bEuorEKgf3h9AK9Y+GVyv9i3UAUgpPuz65A/wrzFLZz/ABj867X4e3X2PUp7aWQDzkBUZ7g//XrSrB8plTklI9Nhf/iaznv5SfzatFHIrHjkxqcw45iQ/qa0I5cj6etcTOyJpBtwFSIcnFVI5KsK3fPNSUW0qUNUCPnrUueKQ2KWFAYYqImgNxQFh7dOtQt15pk1zHEVVpFVmBwD3xTFk3SBUKPxltrj5eM85oE3YzxAuz76/nTvs67cbk/OvHY/Gt5M4SO6RmPQCJf8KG8bXqD5rqMDOOYl/wAK35GZe0PYvs42j51/Ol+zjP3h+deNp45u2IAu4iT/ANMl/wAKcfGt+GC/aYs+nlr/AIUcjF7U9h+zj+8v50423T5l/OvG/wDhNdQ3FftMeRxjyl/wpjeOr5W2m5i3enlL/hRyMPao9m+y8/eH50v2U+o/OvFX8f3qHBuYh/2xX/ChfiDdkgfa4f8Avyv+FP2bD2qPavs3PUfnSfZuOq/nXjDePbxPvXMQ/wC2K/4Un/CwLr/n6h/78r/hS9mw9qj2f7L7j86qajNBpdobm4YhAwUBRuJJ6DAryP8A4T+5/wCfqH/vyv8AhR/wnl0/H2mE5/6Yr/hRyMPaon8T6/d67fraW1nKFTICKCWP1xVfQ/DGo6tq7afcRtbmMB55M8xrj7uPU0xPF88UTQwSW8PUZihUEH14HWmWXiiXToitvJGu47mcoCzH1JIyavltsDmn1PU9K8KWemWS24hjl2Sb1kZRuz2JPrWs1seM8147/wAJ7c55uYh/wAf4UHx5cHrdx/8AfI/wqeRsFVijqfig09vo1vGoXyZJhvOfm4BOAK8ac7nJH3e2euK6LxH4in1m3hieYOisWwvrisWKFm5KYHvXTSjZWOWrK8rhapMW+Vdy/dz02571pi28p9rSBz6hs5qvGdnC7PwGacs2772a3irMyZYMe1gR+NdD4NER8RwmUqWCNsyOhxXNGddpXPI6Vp+HW3a/YhXKHzQMjr9Px6UqjvFoqnpJM9YzjUnbsYV/9Car0UnIrPOf7QZcdIQfzY/4VaiJzXmM9FGmj/nVpH4FZ6N71biapGXkc1NuxVeJckYNWmiYLnFIoiMgpQ4Pfmq8hwcd6jMhA60AYfjCR1W2SNsM27B+pArk57q5sryCzE7MSWV2B+9jqa3fFcqSSRI4dlCgEJ94gnnHvXLykHWIwAQqRM2CfpVxWhnLc43R7SzhvFaSVkJXktjFQXtvbee0IcSqDk7WqJm+Q4PaqNqrRluDzXSrnI9yy1tAEbZEcgcfMetVIIZHTeVxtPfirpmO3B4oWUCJlJBBFNNiaQ+F1niVgE8zse4qvNaKsbyMPn5Ofeq9u6WchYEknoO9Szz3FxGdw8uP07mizuK6sZ0pDYPtzUYpzqBkg/hQRtUZ6mtDIdKrIQrHJxUdWbxcSgEj7oqvgY6igHuJVhB+5XqeTwBzVfmpVZgnAII6EUAixHjcoHYGnszFSxUgAVTEh3jdx7itG3xKdpkLKF3D69gaTKWpmMDvPU0mD6GtV7XcR5kQz6g1TkiEZHyY9eaFJMHBoSNf3IyDye3FT5yNqghfemRqdo2jj3NSFiDjBB961iSSBgFHSjOdwJHNM6qc1DK7ABs+1NsAeXLgA9OtXdPvjaXUUvIaNw6keoOazY1yfvAfWtvQrNLvWbS1UBjJIAWbgY61F9LlLc9bsvGOmXd5I+oWrW7vGgzH0754P19a6K1isdQUGwvYpSeik4b8jXFzaO8V7JHLCeY1Yce5H9Krf2V5bFoXeJuo2muFpPY7k2ejGwmhPzRsPwpyqY25FcdYeJfEGkBV8wXcA/gk54/z9K6fT/HWi3xEeoW72cx4yBkZ+n/66nlZXPbdG7YRGeQbWQYPRmxXQT2CiAkdQK811rV/suqFtOuo5YDGCoYHYT9euevH0rKXUbq5ud73Mp3S8DecYzxxRFK2qJmpNppnaznbI23nmq7uCOtNEpkQN61GxB61Jqcx4gcrqKATiE/LiQjO2ucds6xMcfcgxn6n/wCtW7q7O+qEoiPsJzvPAGOv1rnHb/S9UkB5VFX+Zq4mcmcj9kZjjoajWxlDEcfnWnJC5GUOGqFCzNhgQ1Xzsz5EV10x2HT8M0HTGHHB9qvqZF/iPFW4x5oH971NHtGh+zTMCTTHLB0wriopIJDGQwAaur+zqwwwwapXlnhSduR6imqt2S6Njj5LdkPzYPoKieJjk9TWo1vK0zO6YUcDNSrbhv4fyrX2ljJUrmVKklwwfyyPlA5potm9K3ZYAhHGRioTAGOQRU+0H7Iy0s3z1Aq7DYuFy351Oo2nkCr0Jj2D96q+zHik5sqNJGNNYgnIplvaSpNw5Cd8GtiVYC2fMUH2PFRl4xwWU+4o52HskRLvTgHI9DTx5Ln958p9xUZdc53Aj6UmVz94/TFIuwt1AgjDxPnB7VXWGWXoBU52kfKT9DVq1xuGRVKcooXsoyepSXTbp+kZI9qgubJopfKlGGHPFdrbSKsPrXMam4lv5GXIAOKUa0pOzLnh4QV0JY6DHcrkzlfbbmr0tidB8q4tyJpt2PmXIx9KuaSpWMGjXJCsEZC5+f6dqn2knKzL9jFU7pamhpvjh7eWIyrJAv3W/jjI+h6c12VlrGmamm4opJ/5aW7Z/NT0rx4mMjKfISeVPAP5U9VljZZLUss3+w2PyNU6aexhzyjue4xaVFdAm0mjm45UHDfkeapXehA7llhIPuK8103xjqdowS4QXAXs42uPxFd3o/xItrgLFPOF7eXeLkfg1ZSjKJoqiZTvdGmghY29xLEBzgHj8qoWEmr/ANrWkbyK0XmDdhByK9AmvNK1G0wUa3L9HU74z+Iqhb6G6XsUsBWVBk5jOe1JSLVmalvIQgB9KmJHbGTVQrJG3Ip/neoxUFnKaiUk1V98bt8zMpXopz1PtXNyufsmqyZzubaAPpW3dTk6kcM2GVmIHQ89659yDpNx28y4I/8AHgK1ijKRiDUXAwI1I9zUUl7I5yUUH1FRYFHanyo1sS/bp8Y+X8qVb+6Xo4H4VBilosgsWDqd6wx5x/IUx728cYadyKixS4osh2GFpD1dj+NNw3qfzqbHNG2ncXKRYb1J+ppNlTBc9KXYR1FAcpBso2eoqbFGKLj5SLZR5dS45peKVx8pD5YpfLqWjpRcOUi2gAgjORx7GprY9Oe9NIyKfCgGcetO90RKNndG1ACVAHWueuQfPcn++c11FpHhUNc7qKiK4mHYOelRDcuovdub2jKrRLUXiCPECDsHqvod4gAQ9ulX9cZZbQsvYg1LTUy004HLbOKTZjpU1JjNbXMXFDQcgglwT3BJxQImddvm7vTcBn8+9BApCuapSM3ST2LFpfXumSfubt4kzgqGIz+Brp9M+IM9rPi7gZGBx5ludpH1HeuUE7BdkiLInvTRb2s5+VzEw7Z4oai90Z8so7HtWleN7TUwEaSC7/2XHly//XrcRtMvPljuDbyH/lnOMfr0r55aynhYN99f7yDmtbTPFeq2bLCJWmQHAhmG78u9Zul1TGqjWj0O31rwjrOjpcan5yXSBDhFGAF9c5rkoZpWs7WOW3k/esJCwXIAz1zW/B43+12NxYlZ7Z5oypjDbkbj9K3dH1TT38N21tcWyuqQBC8LZPT+IUrtblaM8mFFHSjpVHQAFFFL+NIBMUoFGaXNABU0NzJCpCbOuclAT+tQ5ozQMtf2jd5BWYqR0KAL/Koprme4x50zybem5icVHRxQFg70GjIozQFhO9Hel4NFIYho7Up5pOlABUkbfOxCEJkY5zUeas2h3NtxQ9CGrmkLry4FK1i3B86SRj/Ea6EIGtHBXkKa5s0oFy7BamXzlJIyAFGBjgVu3Fu7abJIxzwKyrMZmFdTJGJNOaP1Q0py1JpR0Zx2KDyRzikPB6UlaCuWfsjNjZNA3t5gH88U17O4UZ8rI9VIP8qr0mfQflQIUmmMAeozS5pDTECu6fcldR7GpfMgkXE6Pu7SK3I/CoaafpTM3FM0tMdhdjM4kQK2N/J6e/SoEv0hkLRyy20vqDw35VROeuaNw27WVWX8jT06mTj2LdGabupN1QdVx2TS5xTc0Z+lAXHZozmmEjFLmgLj6MimbuKM80DuPzxRmmbuKM+tAXH7qM0zNLQFx+aQmm0d6AuOzilzTc0maB3HE8VZsXCy1UzUls+2ak9iW9TqVKtbt7iuSY4Yj0Nb0c22POe1YDNudj6mpgi5u5csCPMya6ZZcQEH+7XMWHMmBW3I+23Yk9BSmtQg9DmXb52+tNyaUnJJ96T6VqZhn0pCTRRQAmc0tJRTEIcetH40pHekoExpA700gdqfjmkwKZNiTNGaSikVcWjNJn2opWHcdnikopKLALmjNJR0osAuaXNNzRmiwXHZozxTc0ZosO4+gH1NM3Uu6iwXHlqTdzTc0mTQFyTNAzHLGW4DjIpmaY33gw6igmTNyPPkE9gCax92K0YZN1jIfRTWXn86mKLb2LthJtnFbF66ixkPtWRZREoXx/FWhqh26en+0wFTL4io7GGDS/jSfWitDMO1JS9qOtACUc0vagUwEooz7UUABpKD1ooJDOKM0UtABSUtAoHYKCDS0ZoASiloxQA3FGPWnUYpXCw3FJin4xSU7hYTFLikpaAsAoxmk5pDK0R3qqsV7MMg0A3ZXJGikWUxlTvHGBzUw0+7Cea8DpGOrMMVY0fxFZaarebZlpugkU8gfSkvtfF6HEQkUNx17HqKVpXtYjnhy3vqSw28ggmjUbtyfL7mmQ6SSR9onSIYzgfMaryaxM9m1qIEG5doYHmsbz76Pje/4801CQOtFbK510U0cEgto9vldmPWl1tG/s2B2GMSYz+FckmoXHRnx+FWBfySyRrcTSyR7uVDdval7J3uCxCtYmBpQRRgZyOnbNHag0F4pKMUYoGFFFGKAEPNFGKKYg4pKWigBBRmijjvQSFLSUUDuLRQKKBhS5pKKAFo60lLSAOtGKKMd6QwxRiiigAFBGeKKXIpgRPDG/VQarvaKOUYrVw00impMhwi+hUSOaORXR8MpyGHUVYyT98cnrS+vFOFNu5MYKOxEyI3amCFA2doqfHWmEHPAouNxRIB6UuTimKxBqTrSKQlKDRjijHNIoOKWkzS9RSASjtS9qKYCYoxS0lAH//Z;" vertex="1" parent="1">
          <mxGeometry x="40" y="120" width="160" height="160" as="geometry" />
        </mxCell>
        <mxCell id="8UH31n_FKA3EFoD4OGH5-2" value="" style="shape=image;verticalLabelPosition=bottom;labelBackgroundColor=#ffffff;verticalAlign=top;aspect=fixed;imageAspect=0;image=data:image/jpeg,/9j/4AAQSkZJRgABAQAAAQABAAD/2wBDAAgGBgcGBQgHBwcJCQgKDBQNDAsLDBkSEw8UHRofHh0aHBwgJC4nICIsIxwcKDcpLDAxNDQ0Hyc5PTgyPC4zNDL/2wBDAQkJCQwLDBgNDRgyIRwhMjIyMjIyMjIyMjIyMjIyMjIyMjIyMjIyMjIyMjIyMjIyMjIyMjIyMjIyMjIyMjIyMjL/wAARCAEAAQADASIAAhEBAxEB/8QAHwAAAQUBAQEBAQEAAAAAAAAAAAECAwQFBgcICQoL/8QAtRAAAgEDAwIEAwUFBAQAAAF9AQIDAAQRBRIhMUEGE1FhByJxFDKBkaEII0KxwRVS0fAkM2JyggkKFhcYGRolJicoKSo0NTY3ODk6Q0RFRkdISUpTVFVWV1hZWmNkZWZnaGlqc3R1dnd4eXqDhIWGh4iJipKTlJWWl5iZmqKjpKWmp6ipqrKztLW2t7i5usLDxMXGx8jJytLT1NXW19jZ2uHi4+Tl5ufo6erx8vP09fb3+Pn6/8QAHwEAAwEBAQEBAQEBAQAAAAAAAAECAwQFBgcICQoL/8QAtREAAgECBAQDBAcFBAQAAQJ3AAECAxEEBSExBhJBUQdhcRMiMoEIFEKRobHBCSMzUvAVYnLRChYkNOEl8RcYGRomJygpKjU2Nzg5OkNERUZHSElKU1RVVldYWVpjZGVmZ2hpanN0dXZ3eHl6goOEhYaHiImKkpOUlZaXmJmaoqOkpaanqKmqsrO0tba3uLm6wsPExcbHyMnK0tPU1dbX2Nna4uPk5ebn6Onq8vP09fb3+Pn6/9oADAMBAAIRAxEAPwD0OL5fWr0LVRjuB6Cm3WpbF8qBd0rcD2rzz1izqF+2RY2ah7mXjPZB6mrek+H7XTbWdVy8syEOx55x2qLSLAWimWT5riTlmP8AKtsN8lUjKpfZHPzu091afxbof5jFdiowoHoK4e0l829iI/5ZqF/8fxXc1vQ3ZjiOiCiiiug5QooooAKKKKACiiigAooooA5rXPDF7e3zX+j6w+l3cqLHM6wrIJVX7uc8gjJq9p2iSWttsvtTu9QlYDc8jbACBzgL0B/GtckAZPAoqeVF87tYx4NBs4YJFukFyTIzBpSWIXsOfSs9rDTEn+SygH/ABW9dSlGCdAwrxv4lfEJNB+06TYnOoPHjzFb/AFWc8/XHP41zzXPLlR0UnZOUj08RWijCwQr9EAqpciMDhVH0FfKU3ibXbiRJJNXvWdPukzNxXqPw/wDiVcX0iaTrsqtKflt7huC5/ut7+9TOi0rmlOqm9Tf8W+FdP1vULS4vPNYg+XsV8LjBPSp4LIPLHp0C7UOPMxxhB2rY1KQC4tfl6s7fkv8A9erOj2OxZLlx88h49hUc2hvbUkh0+O22+SoVBxtHatSIDApFXHHanqMVFxlqPGavQDpVCI1fgq4nLVLa9KdTV6Utd0djjGv0qhc96vueKz7jvXLVd2bUtzkGJA2KMmr2nWCofOcAuemaSC3BO48itBTj6e1YneWFFSFsJUAfFKX+Q00Q43OatWMYvyOqE4/77zXoQPyj6V58oL3GrJ0xgj8dprvlb5FOewram7NnNXWxJmlpgNOBrojK5zWKw1K0OqHTPPX7aIRP5XfZnG786tVzUEMUnxHurk582LTUixnjaXLZ/P8AlV3xLfalYaV52lW5nud4G3yy+B34BBo5tGyuS7SXU2KK8I1Lx741tIZ7W+jkiR87ZTbmN156giorT4q+IBaRJLMsjxzB97IAWUZypx1B/Oo9tE1+rTPfKK8Ob4x6yzk+Vaxpn/nkSPpnNb1h8ZImQC807Ld2glH8j/jR7aIPDVOh6nRXEQ/FPw9LC7ObmJ1UkI8ec8dMjNb2h+J9M12ygmguYVmkQM1uZBvQ9wR7VanF7MylTnHdGvIu+Mr602eeK2geeeRIokG53c4Cj1Jqvq1xLa6ReT29vLcTRwsyQxffc44A968z8Xa/q+t+BNYOr6NfeHLWCNXS5adS0r5wEKAcgk4pt2Eo3Og+IPiqDRPCT6taXEcrORHbsjBlZj3yPTB/KvlC/upr29lubiRpJZWLO7Hkk12U+vtqvw5sdInmllns7xnyR8ojI4A/HNcfdx7cMFIU9BWUdGzdp8hXDZqV7p38oZI8r7hHUd6gHXrSjlvetDI+lfDtzJrum6BdTA75bZmfPcgAE12aIFXA4ArkvBfl/wDCP+HGjBVTZNww5/hz/WuwBGK4Jbnox2DbkUgGDThSjrSHcmiq/COBVBOKvwHgVcTmqllelKTTQaM10qWhyCOeKz7hutXpDgVmXDc1hUep0UVqctD4s8PHgazYkf8AXZf8auL4h0V/u6tZH/tuv+NUD4W8Pt97RrE/9sF/wpD4O8Nt10Sy/wC/QqfdOxRl3NddY0twNuo2h+ky/wCNPGoWZB23cDfSRT/WsFvAvhh/+YLa/gpFRt8PvCzf8wqMf7rsP60tA5ZF+K4t2vdSCzR5MCsfnHqRXZrcw+WuJUPA6MDXnJ+G/hc8iwdf924cf1pR8O/D6/6sXqf7t5IP61d0jGdKUtz0lJVYZBJ+gqTf/ssfwrzUeAtLX/V3urR/7t8/+NSr4PSMAQ67rkeOn+mE/wA6anYh4Z9y1b69ND8UNRgTS7u5SZIbfzYgCsQUZZmyeg3DpXfZry2DwM1rdyXdp4i1eCeQku6yKS2eueK0I9F1+H/V+M9U9hJFE/8ANa0jVSJlh5PY6XxJbeIL1IodEnsYYmBEzXKFz7YGCPzrkrX4O6c0rz6jqVxPJIdzLCixLnvjrV77J4qC4Xxc5x3bT4Sf5VE9p4x/g8VxD2OnIP5Gk5wbuy406sVZNHW6d4Z0fS9NXT7awg+zj7wdAxc+rE9TXPa38KvDOrozQWx064PSS1+UZ916Gs0R/ECIkx+J9PkB7S2H+Bp63fxFj/5iOgS/71rIv8mq+em0ZezrJ3R5/r3wv8U6Dvns9uqWi85gGJAPdD/TNcYmqywylJEeOVTyCCGU/wBK92XWPiDH96Lw9L9PNWsLxBp+ueIlJ1LwpoM0p6Tw3Txyf99Y5/HNZy9m9joi6y3RymjfETW7SI28eoyhCMAS4fb9CelafizVNI8V6JdSPe6lb6m1vHH9lM2bebYQenQE9cn0rl5fh74rjlbybKPZngeepwPrxmopvDXijT4zJcaVKyDqYiHI/AUk3HZlOEZbo6HWvBtivw/0yDw+YLi+j/f3hSQb3yvOcnqMgfhXmt/ZNLbblHKjpWlLqbxkp88ci8FTkEVdsrN7mE7RnPY1PM46spU1L3UcTJb3NxKSsGWC8rGvQAegrtPh/wCCX1W+W+1K3IsU5VHGPNb/AAq1bafeaDMb+NY1IUqC4yOeK77wT4mg14Na3cUcN/B95UPDqO4/rVuq5R90yVBQl7x0ozHf2UaBVVIpAoAwAPlHFaccz4qq8MZ1WDaflEEh/VKtrEMcNWDN0iVZT3FSo+agVD/eFTKCKkdi0jVdhbpVCMHNW4utWjmqJF4HilzUanigtV8xy2GTNxWdO1XZTWfN1qJM6aKM4NSg81CD708H3pHYTBqdn3qENS7unNAybNLmoQ3NKGxQImBpc1CHpd1AWJQaN1RB+tKGpCsS5pCaj3A0bqAsP3UZ96jLUm/FA7D801jimFuKQtQMUnvTC3ekLe+KjdjtODzjg+lAjj/HUvhe2tVbW7ZJZ3/1Yj4lPvkdvrXl0WqX/kyS6epjtI22lgu7ZnpuPrx+lUPEWs3Gr63c3F04dg5RcdAAcDAqCw1a602O4W1dl84AEA9CDw2PUcj8a61TVrPU5HVd77Gs3ibUWtmgmaKRCMHelZ+m3s9nqUNzFK0Lh+ZE4IBPOKqNIHYMoYKQOG6570/IAGOpOKpQiloJyct2fScQH26Mbi221HzN1OT1/SrYA9arW0OLmI9/safzNXPKODXEzqQLkdzUyE8VEemKkU0hlqNjVuNqooeasxt0powqIu78CjfUO7igNzVXMOUSU1RlNWpWBqjM3WpZvSRlBgKcGqANTg1M6ScN6GnBsVBupQ9AXJ99JuqEvQG9TQJk+73pQ/vVYPTt9AEwenb6rK/Wjfg0CuWQ9G/mq++k39OaLAWd9Jv96g3e1G+gZNvz2pCw71DvpC/pQBKW9643xz4yg8PWElpE5OpTRZiAGQoPGT+tdYz188eO7mafxjqfn5JWYoueyjoPyrSlFNmNabjHQn0aC2eNPPiVy43MWHc1Nr3h2K2tDf2JwqDMkZOcD1FVtMJ+ywOOPlAra1K4P/CP3YPTyiKlykpqzNFGLpO6OME4k2/KFxUgb94PaqUZxitSyjjuDHCisZpDjJ7knAArsZxRZ9M2rbrmA+tov86tkccdaz7YlLyJTwVttv6ir24HvXns7UFKmc00+9C560iiypqwhqohzVhTimmZTROW4pN1RFqTdTuRyiyNVSYjBqV296qzNSZrFWMcNzTt3vVfdzTt/NWWWN9G+oN9G73oETb6XfUAb3pd3WgCcPxRuH41CDSg0AShzik35qLcKN1AEwfnrSbucVET70Bsd+aAJg/60u+q4fPNKHoAm3etJu561FvzSbqQyUtzXjnxY0tINZttQiXAuoyJOOCy9/rjH5V675mc15f8WtRB+wWCyLkbpXQdR2H9a1pfEY1rchgaTFu0uFh97GAAOtT604j8Oz9Pm2j9aj0Wzkn0yJXDbMZ4pnik+RpkUH95/wCVQtaljR3jRbfY5FScda6vwBayXfieziXDIJBK+RnAT5v54rlB6Y/CvUfhRpoBvNTY9MQKPyJ/pXVUdonFTV5HqkUx/tQj0gH/AKFWirbk61hwNjWJvaBOP+BNWpHJkVws7UyznilU+3X3qItTlbmkUWkNTA8VWRu1TA8UImSHsabmkJpM0xJCN0qrMOtWHYYqu5zxSKRz5PApS3SkYZUUY+WtQHZozSEHAo5oAdmjNN7Uc5pAPDcUbvem9KOaBDt1G7imnPpSUDH5pN3NN5ooAduo3ZxzVa6u4LKEy3EgRR61zEvjuz810jzhTwV70m+xUY33djsN3ajJ615de+Nbp9WiltZJmA+UQqOGJ6Vbk1TxjdrldLmUHpuGP50Wn0Qe51Z38t3DChLSD6CuH1Wx0i81qXU74iR2AVUY/KoHTjvWLrC+J7LS2vb5TFGG2su4cA9OhrjbjVriX70jH61SpTl1IlWpw6HoN94isLeIJBGpIwoA4xXH+Jb9Ly8RFIKIOD65rHieeeQAdTUr2lxHM8cissinDKxwQfSt6WHUNUc9bEuorEKgf3h9AK9Y+GVyv9i3UAUgpPuz65A/wrzFLZz/ABj867X4e3X2PUp7aWQDzkBUZ7g//XrSrB8plTklI9Nhf/iaznv5SfzatFHIrHjkxqcw45iQ/qa0I5cj6etcTOyJpBtwFSIcnFVI5KsK3fPNSUW0qUNUCPnrUueKQ2KWFAYYqImgNxQFh7dOtQt15pk1zHEVVpFVmBwD3xTFk3SBUKPxltrj5eM85oE3YzxAuz76/nTvs67cbk/OvHY/Gt5M4SO6RmPQCJf8KG8bXqD5rqMDOOYl/wAK35GZe0PYvs42j51/Ol+zjP3h+deNp45u2IAu4iT/ANMl/wAKcfGt+GC/aYs+nlr/AIUcjF7U9h+zj+8v50423T5l/OvG/wDhNdQ3FftMeRxjyl/wpjeOr5W2m5i3enlL/hRyMPao9m+y8/eH50v2U+o/OvFX8f3qHBuYh/2xX/ChfiDdkgfa4f8Avyv+FP2bD2qPavs3PUfnSfZuOq/nXjDePbxPvXMQ/wC2K/4Un/CwLr/n6h/78r/hS9mw9qj2f7L7j86qajNBpdobm4YhAwUBRuJJ6DAryP8A4T+5/wCfqH/vyv8AhR/wnl0/H2mE5/6Yr/hRyMPaon8T6/d67fraW1nKFTICKCWP1xVfQ/DGo6tq7afcRtbmMB55M8xrj7uPU0xPF88UTQwSW8PUZihUEH14HWmWXiiXToitvJGu47mcoCzH1JIyavltsDmn1PU9K8KWemWS24hjl2Sb1kZRuz2JPrWs1seM8147/wAJ7c55uYh/wAf4UHx5cHrdx/8AfI/wqeRsFVijqfig09vo1vGoXyZJhvOfm4BOAK8ac7nJH3e2euK6LxH4in1m3hieYOisWwvrisWKFm5KYHvXTSjZWOWrK8rhapMW+Vdy/dz02571pi28p9rSBz6hs5qvGdnC7PwGacs2772a3irMyZYMe1gR+NdD4NER8RwmUqWCNsyOhxXNGddpXPI6Vp+HW3a/YhXKHzQMjr9Px6UqjvFoqnpJM9YzjUnbsYV/9Car0UnIrPOf7QZcdIQfzY/4VaiJzXmM9FGmj/nVpH4FZ6N71biapGXkc1NuxVeJckYNWmiYLnFIoiMgpQ4Pfmq8hwcd6jMhA60AYfjCR1W2SNsM27B+pArk57q5sryCzE7MSWV2B+9jqa3fFcqSSRI4dlCgEJ94gnnHvXLykHWIwAQqRM2CfpVxWhnLc43R7SzhvFaSVkJXktjFQXtvbee0IcSqDk7WqJm+Q4PaqNqrRluDzXSrnI9yy1tAEbZEcgcfMetVIIZHTeVxtPfirpmO3B4oWUCJlJBBFNNiaQ+F1niVgE8zse4qvNaKsbyMPn5Ofeq9u6WchYEknoO9Szz3FxGdw8uP07mizuK6sZ0pDYPtzUYpzqBkg/hQRtUZ6mtDIdKrIQrHJxUdWbxcSgEj7oqvgY6igHuJVhB+5XqeTwBzVfmpVZgnAII6EUAixHjcoHYGnszFSxUgAVTEh3jdx7itG3xKdpkLKF3D69gaTKWpmMDvPU0mD6GtV7XcR5kQz6g1TkiEZHyY9eaFJMHBoSNf3IyDye3FT5yNqghfemRqdo2jj3NSFiDjBB961iSSBgFHSjOdwJHNM6qc1DK7ABs+1NsAeXLgA9OtXdPvjaXUUvIaNw6keoOazY1yfvAfWtvQrNLvWbS1UBjJIAWbgY61F9LlLc9bsvGOmXd5I+oWrW7vGgzH0754P19a6K1isdQUGwvYpSeik4b8jXFzaO8V7JHLCeY1Yce5H9Krf2V5bFoXeJuo2muFpPY7k2ejGwmhPzRsPwpyqY25FcdYeJfEGkBV8wXcA/gk54/z9K6fT/HWi3xEeoW72cx4yBkZ+n/66nlZXPbdG7YRGeQbWQYPRmxXQT2CiAkdQK811rV/suqFtOuo5YDGCoYHYT9euevH0rKXUbq5ud73Mp3S8DecYzxxRFK2qJmpNppnaznbI23nmq7uCOtNEpkQN61GxB61Jqcx4gcrqKATiE/LiQjO2ucds6xMcfcgxn6n/wCtW7q7O+qEoiPsJzvPAGOv1rnHb/S9UkB5VFX+Zq4mcmcj9kZjjoajWxlDEcfnWnJC5GUOGqFCzNhgQ1Xzsz5EV10x2HT8M0HTGHHB9qvqZF/iPFW4x5oH971NHtGh+zTMCTTHLB0wriopIJDGQwAaur+zqwwwwapXlnhSduR6imqt2S6Njj5LdkPzYPoKieJjk9TWo1vK0zO6YUcDNSrbhv4fyrX2ljJUrmVKklwwfyyPlA5potm9K3ZYAhHGRioTAGOQRU+0H7Iy0s3z1Aq7DYuFy351Oo2nkCr0Jj2D96q+zHik5sqNJGNNYgnIplvaSpNw5Cd8GtiVYC2fMUH2PFRl4xwWU+4o52HskRLvTgHI9DTx5Ln958p9xUZdc53Aj6UmVz94/TFIuwt1AgjDxPnB7VXWGWXoBU52kfKT9DVq1xuGRVKcooXsoyepSXTbp+kZI9qgubJopfKlGGHPFdrbSKsPrXMam4lv5GXIAOKUa0pOzLnh4QV0JY6DHcrkzlfbbmr0tidB8q4tyJpt2PmXIx9KuaSpWMGjXJCsEZC5+f6dqn2knKzL9jFU7pamhpvjh7eWIyrJAv3W/jjI+h6c12VlrGmamm4opJ/5aW7Z/NT0rx4mMjKfISeVPAP5U9VljZZLUss3+w2PyNU6aexhzyjue4xaVFdAm0mjm45UHDfkeapXehA7llhIPuK8103xjqdowS4QXAXs42uPxFd3o/xItrgLFPOF7eXeLkfg1ZSjKJoqiZTvdGmghY29xLEBzgHj8qoWEmr/ANrWkbyK0XmDdhByK9AmvNK1G0wUa3L9HU74z+Iqhb6G6XsUsBWVBk5jOe1JSLVmalvIQgB9KmJHbGTVQrJG3Ip/neoxUFnKaiUk1V98bt8zMpXopz1PtXNyufsmqyZzubaAPpW3dTk6kcM2GVmIHQ89659yDpNx28y4I/8AHgK1ijKRiDUXAwI1I9zUUl7I5yUUH1FRYFHanyo1sS/bp8Y+X8qVb+6Xo4H4VBilosgsWDqd6wx5x/IUx728cYadyKixS4osh2GFpD1dj+NNw3qfzqbHNG2ncXKRYb1J+ppNlTBc9KXYR1FAcpBso2eoqbFGKLj5SLZR5dS45peKVx8pD5YpfLqWjpRcOUi2gAgjORx7GprY9Oe9NIyKfCgGcetO90RKNndG1ACVAHWueuQfPcn++c11FpHhUNc7qKiK4mHYOelRDcuovdub2jKrRLUXiCPECDsHqvod4gAQ9ulX9cZZbQsvYg1LTUy004HLbOKTZjpU1JjNbXMXFDQcgglwT3BJxQImddvm7vTcBn8+9BApCuapSM3ST2LFpfXumSfubt4kzgqGIz+Brp9M+IM9rPi7gZGBx5ludpH1HeuUE7BdkiLInvTRb2s5+VzEw7Z4oai90Z8so7HtWleN7TUwEaSC7/2XHly//XrcRtMvPljuDbyH/lnOMfr0r55aynhYN99f7yDmtbTPFeq2bLCJWmQHAhmG78u9Zul1TGqjWj0O31rwjrOjpcan5yXSBDhFGAF9c5rkoZpWs7WOW3k/esJCwXIAz1zW/B43+12NxYlZ7Z5oypjDbkbj9K3dH1TT38N21tcWyuqQBC8LZPT+IUrtblaM8mFFHSjpVHQAFFFL+NIBMUoFGaXNABU0NzJCpCbOuclAT+tQ5ozQMtf2jd5BWYqR0KAL/Koprme4x50zybem5icVHRxQFg70GjIozQFhO9Hel4NFIYho7Up5pOlABUkbfOxCEJkY5zUeas2h3NtxQ9CGrmkLry4FK1i3B86SRj/Ea6EIGtHBXkKa5s0oFy7BamXzlJIyAFGBjgVu3Fu7abJIxzwKyrMZmFdTJGJNOaP1Q0py1JpR0Zx2KDyRzikPB6UlaCuWfsjNjZNA3t5gH88U17O4UZ8rI9VIP8qr0mfQflQIUmmMAeozS5pDTECu6fcldR7GpfMgkXE6Pu7SK3I/CoaafpTM3FM0tMdhdjM4kQK2N/J6e/SoEv0hkLRyy20vqDw35VROeuaNw27WVWX8jT06mTj2LdGabupN1QdVx2TS5xTc0Z+lAXHZozmmEjFLmgLj6MimbuKM80DuPzxRmmbuKM+tAXH7qM0zNLQFx+aQmm0d6AuOzilzTc0maB3HE8VZsXCy1UzUls+2ak9iW9TqVKtbt7iuSY4Yj0Nb0c22POe1YDNudj6mpgi5u5csCPMya6ZZcQEH+7XMWHMmBW3I+23Yk9BSmtQg9DmXb52+tNyaUnJJ96T6VqZhn0pCTRRQAmc0tJRTEIcetH40pHekoExpA700gdqfjmkwKZNiTNGaSikVcWjNJn2opWHcdnikopKLALmjNJR0osAuaXNNzRmiwXHZozxTc0ZosO4+gH1NM3Uu6iwXHlqTdzTc0mTQFyTNAzHLGW4DjIpmaY33gw6igmTNyPPkE9gCax92K0YZN1jIfRTWXn86mKLb2LthJtnFbF66ixkPtWRZREoXx/FWhqh26en+0wFTL4io7GGDS/jSfWitDMO1JS9qOtACUc0vagUwEooz7UUABpKD1ooJDOKM0UtABSUtAoHYKCDS0ZoASiloxQA3FGPWnUYpXCw3FJin4xSU7hYTFLikpaAsAoxmk5pDK0R3qqsV7MMg0A3ZXJGikWUxlTvHGBzUw0+7Cea8DpGOrMMVY0fxFZaarebZlpugkU8gfSkvtfF6HEQkUNx17HqKVpXtYjnhy3vqSw28ggmjUbtyfL7mmQ6SSR9onSIYzgfMaryaxM9m1qIEG5doYHmsbz76Pje/4801CQOtFbK510U0cEgto9vldmPWl1tG/s2B2GMSYz+FckmoXHRnx+FWBfySyRrcTSyR7uVDdval7J3uCxCtYmBpQRRgZyOnbNHag0F4pKMUYoGFFFGKAEPNFGKKYg4pKWigBBRmijjvQSFLSUUDuLRQKKBhS5pKKAFo60lLSAOtGKKMd6QwxRiiigAFBGeKKXIpgRPDG/VQarvaKOUYrVw00impMhwi+hUSOaORXR8MpyGHUVYyT98cnrS+vFOFNu5MYKOxEyI3amCFA2doqfHWmEHPAouNxRIB6UuTimKxBqTrSKQlKDRjijHNIoOKWkzS9RSASjtS9qKYCYoxS0lAH//Z;" vertex="1" parent="1">
          <mxGeometry x="50" y="130" width="160" height="160" as="geometry" />
        </mxCell>
        <mxCell id="8UH31n_FKA3EFoD4OGH5-3" value="" style="shape=image;verticalLabelPosition=bottom;labelBackgroundColor=#ffffff;verticalAlign=top;aspect=fixed;imageAspect=0;image=data:image/jpeg,/9j/4AAQSkZJRgABAQAAAQABAAD/2wBDAAgGBgcGBQgHBwcJCQgKDBQNDAsLDBkSEw8UHRofHh0aHBwgJC4nICIsIxwcKDcpLDAxNDQ0Hyc5PTgyPC4zNDL/2wBDAQkJCQwLDBgNDRgyIRwhMjIyMjIyMjIyMjIyMjIyMjIyMjIyMjIyMjIyMjIyMjIyMjIyMjIyMjIyMjIyMjIyMjL/wAARCAEAAQADASIAAhEBAxEB/8QAHwAAAQUBAQEBAQEAAAAAAAAAAAECAwQFBgcICQoL/8QAtRAAAgEDAwIEAwUFBAQAAAF9AQIDAAQRBRIhMUEGE1FhByJxFDKBkaEII0KxwRVS0fAkM2JyggkKFhcYGRolJicoKSo0NTY3ODk6Q0RFRkdISUpTVFVWV1hZWmNkZWZnaGlqc3R1dnd4eXqDhIWGh4iJipKTlJWWl5iZmqKjpKWmp6ipqrKztLW2t7i5usLDxMXGx8jJytLT1NXW19jZ2uHi4+Tl5ufo6erx8vP09fb3+Pn6/8QAHwEAAwEBAQEBAQEBAQAAAAAAAAECAwQFBgcICQoL/8QAtREAAgECBAQDBAcFBAQAAQJ3AAECAxEEBSExBhJBUQdhcRMiMoEIFEKRobHBCSMzUvAVYnLRChYkNOEl8RcYGRomJygpKjU2Nzg5OkNERUZHSElKU1RVVldYWVpjZGVmZ2hpanN0dXZ3eHl6goOEhYaHiImKkpOUlZaXmJmaoqOkpaanqKmqsrO0tba3uLm6wsPExcbHyMnK0tPU1dbX2Nna4uPk5ebn6Onq8vP09fb3+Pn6/9oADAMBAAIRAxEAPwD0OL5fWr0LVRjuB6Cm3WpbF8qBd0rcD2rzz1izqF+2RY2ah7mXjPZB6mrek+H7XTbWdVy8syEOx55x2qLSLAWimWT5riTlmP8AKtsN8lUjKpfZHPzu091afxbof5jFdiowoHoK4e0l829iI/5ZqF/8fxXc1vQ3ZjiOiCiiiug5QooooAKKKKACiiigAooooA5rXPDF7e3zX+j6w+l3cqLHM6wrIJVX7uc8gjJq9p2iSWttsvtTu9QlYDc8jbACBzgL0B/GtckAZPAoqeVF87tYx4NBs4YJFukFyTIzBpSWIXsOfSs9rDTEn+SygH/ABW9dSlGCdAwrxv4lfEJNB+06TYnOoPHjzFb/AFWc8/XHP41zzXPLlR0UnZOUj08RWijCwQr9EAqpciMDhVH0FfKU3ibXbiRJJNXvWdPukzNxXqPw/wDiVcX0iaTrsqtKflt7huC5/ut7+9TOi0rmlOqm9Tf8W+FdP1vULS4vPNYg+XsV8LjBPSp4LIPLHp0C7UOPMxxhB2rY1KQC4tfl6s7fkv8A9erOj2OxZLlx88h49hUc2hvbUkh0+O22+SoVBxtHatSIDApFXHHanqMVFxlqPGavQDpVCI1fgq4nLVLa9KdTV6Utd0djjGv0qhc96vueKz7jvXLVd2bUtzkGJA2KMmr2nWCofOcAuemaSC3BO48itBTj6e1YneWFFSFsJUAfFKX+Q00Q43OatWMYvyOqE4/77zXoQPyj6V58oL3GrJ0xgj8dprvlb5FOewram7NnNXWxJmlpgNOBrojK5zWKw1K0OqHTPPX7aIRP5XfZnG786tVzUEMUnxHurk582LTUixnjaXLZ/P8AlV3xLfalYaV52lW5nud4G3yy+B34BBo5tGyuS7SXU2KK8I1Lx741tIZ7W+jkiR87ZTbmN156giorT4q+IBaRJLMsjxzB97IAWUZypx1B/Oo9tE1+rTPfKK8Ob4x6yzk+Vaxpn/nkSPpnNb1h8ZImQC807Ld2glH8j/jR7aIPDVOh6nRXEQ/FPw9LC7ObmJ1UkI8ec8dMjNb2h+J9M12ygmguYVmkQM1uZBvQ9wR7VanF7MylTnHdGvIu+Mr602eeK2geeeRIokG53c4Cj1Jqvq1xLa6ReT29vLcTRwsyQxffc44A968z8Xa/q+t+BNYOr6NfeHLWCNXS5adS0r5wEKAcgk4pt2Eo3Og+IPiqDRPCT6taXEcrORHbsjBlZj3yPTB/KvlC/upr29lubiRpJZWLO7Hkk12U+vtqvw5sdInmllns7xnyR8ojI4A/HNcfdx7cMFIU9BWUdGzdp8hXDZqV7p38oZI8r7hHUd6gHXrSjlvetDI+lfDtzJrum6BdTA75bZmfPcgAE12aIFXA4ArkvBfl/wDCP+HGjBVTZNww5/hz/WuwBGK4Jbnox2DbkUgGDThSjrSHcmiq/COBVBOKvwHgVcTmqllelKTTQaM10qWhyCOeKz7hutXpDgVmXDc1hUep0UVqctD4s8PHgazYkf8AXZf8auL4h0V/u6tZH/tuv+NUD4W8Pt97RrE/9sF/wpD4O8Nt10Sy/wC/QqfdOxRl3NddY0twNuo2h+ky/wCNPGoWZB23cDfSRT/WsFvAvhh/+YLa/gpFRt8PvCzf8wqMf7rsP60tA5ZF+K4t2vdSCzR5MCsfnHqRXZrcw+WuJUPA6MDXnJ+G/hc8iwdf924cf1pR8O/D6/6sXqf7t5IP61d0jGdKUtz0lJVYZBJ+gqTf/ssfwrzUeAtLX/V3urR/7t8/+NSr4PSMAQ67rkeOn+mE/wA6anYh4Z9y1b69ND8UNRgTS7u5SZIbfzYgCsQUZZmyeg3DpXfZry2DwM1rdyXdp4i1eCeQku6yKS2eueK0I9F1+H/V+M9U9hJFE/8ANa0jVSJlh5PY6XxJbeIL1IodEnsYYmBEzXKFz7YGCPzrkrX4O6c0rz6jqVxPJIdzLCixLnvjrV77J4qC4Xxc5x3bT4Sf5VE9p4x/g8VxD2OnIP5Gk5wbuy406sVZNHW6d4Z0fS9NXT7awg+zj7wdAxc+rE9TXPa38KvDOrozQWx064PSS1+UZ916Gs0R/ECIkx+J9PkB7S2H+Bp63fxFj/5iOgS/71rIv8mq+em0ZezrJ3R5/r3wv8U6Dvns9uqWi85gGJAPdD/TNcYmqywylJEeOVTyCCGU/wBK92XWPiDH96Lw9L9PNWsLxBp+ueIlJ1LwpoM0p6Tw3Txyf99Y5/HNZy9m9joi6y3RymjfETW7SI28eoyhCMAS4fb9CelafizVNI8V6JdSPe6lb6m1vHH9lM2bebYQenQE9cn0rl5fh74rjlbybKPZngeepwPrxmopvDXijT4zJcaVKyDqYiHI/AUk3HZlOEZbo6HWvBtivw/0yDw+YLi+j/f3hSQb3yvOcnqMgfhXmt/ZNLbblHKjpWlLqbxkp88ci8FTkEVdsrN7mE7RnPY1PM46spU1L3UcTJb3NxKSsGWC8rGvQAegrtPh/wCCX1W+W+1K3IsU5VHGPNb/AAq1bafeaDMb+NY1IUqC4yOeK77wT4mg14Na3cUcN/B95UPDqO4/rVuq5R90yVBQl7x0ozHf2UaBVVIpAoAwAPlHFaccz4qq8MZ1WDaflEEh/VKtrEMcNWDN0iVZT3FSo+agVD/eFTKCKkdi0jVdhbpVCMHNW4utWjmqJF4HilzUanigtV8xy2GTNxWdO1XZTWfN1qJM6aKM4NSg81CD708H3pHYTBqdn3qENS7unNAybNLmoQ3NKGxQImBpc1CHpd1AWJQaN1RB+tKGpCsS5pCaj3A0bqAsP3UZ96jLUm/FA7D801jimFuKQtQMUnvTC3ekLe+KjdjtODzjg+lAjj/HUvhe2tVbW7ZJZ3/1Yj4lPvkdvrXl0WqX/kyS6epjtI22lgu7ZnpuPrx+lUPEWs3Gr63c3F04dg5RcdAAcDAqCw1a602O4W1dl84AEA9CDw2PUcj8a61TVrPU5HVd77Gs3ibUWtmgmaKRCMHelZ+m3s9nqUNzFK0Lh+ZE4IBPOKqNIHYMoYKQOG6570/IAGOpOKpQiloJyct2fScQH26Mbi221HzN1OT1/SrYA9arW0OLmI9/safzNXPKODXEzqQLkdzUyE8VEemKkU0hlqNjVuNqooeasxt0powqIu78CjfUO7igNzVXMOUSU1RlNWpWBqjM3WpZvSRlBgKcGqANTg1M6ScN6GnBsVBupQ9AXJ99JuqEvQG9TQJk+73pQ/vVYPTt9AEwenb6rK/Wjfg0CuWQ9G/mq++k39OaLAWd9Jv96g3e1G+gZNvz2pCw71DvpC/pQBKW9643xz4yg8PWElpE5OpTRZiAGQoPGT+tdYz188eO7mafxjqfn5JWYoueyjoPyrSlFNmNabjHQn0aC2eNPPiVy43MWHc1Nr3h2K2tDf2JwqDMkZOcD1FVtMJ+ywOOPlAra1K4P/CP3YPTyiKlykpqzNFGLpO6OME4k2/KFxUgb94PaqUZxitSyjjuDHCisZpDjJ7knAArsZxRZ9M2rbrmA+tov86tkccdaz7YlLyJTwVttv6ir24HvXns7UFKmc00+9C560iiypqwhqohzVhTimmZTROW4pN1RFqTdTuRyiyNVSYjBqV296qzNSZrFWMcNzTt3vVfdzTt/NWWWN9G+oN9G73oETb6XfUAb3pd3WgCcPxRuH41CDSg0AShzik35qLcKN1AEwfnrSbucVET70Bsd+aAJg/60u+q4fPNKHoAm3etJu561FvzSbqQyUtzXjnxY0tINZttQiXAuoyJOOCy9/rjH5V675mc15f8WtRB+wWCyLkbpXQdR2H9a1pfEY1rchgaTFu0uFh97GAAOtT604j8Oz9Pm2j9aj0Wzkn0yJXDbMZ4pnik+RpkUH95/wCVQtaljR3jRbfY5FScda6vwBayXfieziXDIJBK+RnAT5v54rlB6Y/CvUfhRpoBvNTY9MQKPyJ/pXVUdonFTV5HqkUx/tQj0gH/AKFWirbk61hwNjWJvaBOP+BNWpHJkVws7UyznilU+3X3qItTlbmkUWkNTA8VWRu1TA8UImSHsabmkJpM0xJCN0qrMOtWHYYqu5zxSKRz5PApS3SkYZUUY+WtQHZozSEHAo5oAdmjNN7Uc5pAPDcUbvem9KOaBDt1G7imnPpSUDH5pN3NN5ooAduo3ZxzVa6u4LKEy3EgRR61zEvjuz810jzhTwV70m+xUY33djsN3ajJ615de+Nbp9WiltZJmA+UQqOGJ6Vbk1TxjdrldLmUHpuGP50Wn0Qe51Z38t3DChLSD6CuH1Wx0i81qXU74iR2AVUY/KoHTjvWLrC+J7LS2vb5TFGG2su4cA9OhrjbjVriX70jH61SpTl1IlWpw6HoN94isLeIJBGpIwoA4xXH+Jb9Ly8RFIKIOD65rHieeeQAdTUr2lxHM8cissinDKxwQfSt6WHUNUc9bEuorEKgf3h9AK9Y+GVyv9i3UAUgpPuz65A/wrzFLZz/ABj867X4e3X2PUp7aWQDzkBUZ7g//XrSrB8plTklI9Nhf/iaznv5SfzatFHIrHjkxqcw45iQ/qa0I5cj6etcTOyJpBtwFSIcnFVI5KsK3fPNSUW0qUNUCPnrUueKQ2KWFAYYqImgNxQFh7dOtQt15pk1zHEVVpFVmBwD3xTFk3SBUKPxltrj5eM85oE3YzxAuz76/nTvs67cbk/OvHY/Gt5M4SO6RmPQCJf8KG8bXqD5rqMDOOYl/wAK35GZe0PYvs42j51/Ol+zjP3h+deNp45u2IAu4iT/ANMl/wAKcfGt+GC/aYs+nlr/AIUcjF7U9h+zj+8v50423T5l/OvG/wDhNdQ3FftMeRxjyl/wpjeOr5W2m5i3enlL/hRyMPao9m+y8/eH50v2U+o/OvFX8f3qHBuYh/2xX/ChfiDdkgfa4f8Avyv+FP2bD2qPavs3PUfnSfZuOq/nXjDePbxPvXMQ/wC2K/4Un/CwLr/n6h/78r/hS9mw9qj2f7L7j86qajNBpdobm4YhAwUBRuJJ6DAryP8A4T+5/wCfqH/vyv8AhR/wnl0/H2mE5/6Yr/hRyMPaon8T6/d67fraW1nKFTICKCWP1xVfQ/DGo6tq7afcRtbmMB55M8xrj7uPU0xPF88UTQwSW8PUZihUEH14HWmWXiiXToitvJGu47mcoCzH1JIyavltsDmn1PU9K8KWemWS24hjl2Sb1kZRuz2JPrWs1seM8147/wAJ7c55uYh/wAf4UHx5cHrdx/8AfI/wqeRsFVijqfig09vo1vGoXyZJhvOfm4BOAK8ac7nJH3e2euK6LxH4in1m3hieYOisWwvrisWKFm5KYHvXTSjZWOWrK8rhapMW+Vdy/dz02571pi28p9rSBz6hs5qvGdnC7PwGacs2772a3irMyZYMe1gR+NdD4NER8RwmUqWCNsyOhxXNGddpXPI6Vp+HW3a/YhXKHzQMjr9Px6UqjvFoqnpJM9YzjUnbsYV/9Car0UnIrPOf7QZcdIQfzY/4VaiJzXmM9FGmj/nVpH4FZ6N71biapGXkc1NuxVeJckYNWmiYLnFIoiMgpQ4Pfmq8hwcd6jMhA60AYfjCR1W2SNsM27B+pArk57q5sryCzE7MSWV2B+9jqa3fFcqSSRI4dlCgEJ94gnnHvXLykHWIwAQqRM2CfpVxWhnLc43R7SzhvFaSVkJXktjFQXtvbee0IcSqDk7WqJm+Q4PaqNqrRluDzXSrnI9yy1tAEbZEcgcfMetVIIZHTeVxtPfirpmO3B4oWUCJlJBBFNNiaQ+F1niVgE8zse4qvNaKsbyMPn5Ofeq9u6WchYEknoO9Szz3FxGdw8uP07mizuK6sZ0pDYPtzUYpzqBkg/hQRtUZ6mtDIdKrIQrHJxUdWbxcSgEj7oqvgY6igHuJVhB+5XqeTwBzVfmpVZgnAII6EUAixHjcoHYGnszFSxUgAVTEh3jdx7itG3xKdpkLKF3D69gaTKWpmMDvPU0mD6GtV7XcR5kQz6g1TkiEZHyY9eaFJMHBoSNf3IyDye3FT5yNqghfemRqdo2jj3NSFiDjBB961iSSBgFHSjOdwJHNM6qc1DK7ABs+1NsAeXLgA9OtXdPvjaXUUvIaNw6keoOazY1yfvAfWtvQrNLvWbS1UBjJIAWbgY61F9LlLc9bsvGOmXd5I+oWrW7vGgzH0754P19a6K1isdQUGwvYpSeik4b8jXFzaO8V7JHLCeY1Yce5H9Krf2V5bFoXeJuo2muFpPY7k2ejGwmhPzRsPwpyqY25FcdYeJfEGkBV8wXcA/gk54/z9K6fT/HWi3xEeoW72cx4yBkZ+n/66nlZXPbdG7YRGeQbWQYPRmxXQT2CiAkdQK811rV/suqFtOuo5YDGCoYHYT9euevH0rKXUbq5ud73Mp3S8DecYzxxRFK2qJmpNppnaznbI23nmq7uCOtNEpkQN61GxB61Jqcx4gcrqKATiE/LiQjO2ucds6xMcfcgxn6n/wCtW7q7O+qEoiPsJzvPAGOv1rnHb/S9UkB5VFX+Zq4mcmcj9kZjjoajWxlDEcfnWnJC5GUOGqFCzNhgQ1Xzsz5EV10x2HT8M0HTGHHB9qvqZF/iPFW4x5oH971NHtGh+zTMCTTHLB0wriopIJDGQwAaur+zqwwwwapXlnhSduR6imqt2S6Njj5LdkPzYPoKieJjk9TWo1vK0zO6YUcDNSrbhv4fyrX2ljJUrmVKklwwfyyPlA5potm9K3ZYAhHGRioTAGOQRU+0H7Iy0s3z1Aq7DYuFy351Oo2nkCr0Jj2D96q+zHik5sqNJGNNYgnIplvaSpNw5Cd8GtiVYC2fMUH2PFRl4xwWU+4o52HskRLvTgHI9DTx5Ln958p9xUZdc53Aj6UmVz94/TFIuwt1AgjDxPnB7VXWGWXoBU52kfKT9DVq1xuGRVKcooXsoyepSXTbp+kZI9qgubJopfKlGGHPFdrbSKsPrXMam4lv5GXIAOKUa0pOzLnh4QV0JY6DHcrkzlfbbmr0tidB8q4tyJpt2PmXIx9KuaSpWMGjXJCsEZC5+f6dqn2knKzL9jFU7pamhpvjh7eWIyrJAv3W/jjI+h6c12VlrGmamm4opJ/5aW7Z/NT0rx4mMjKfISeVPAP5U9VljZZLUss3+w2PyNU6aexhzyjue4xaVFdAm0mjm45UHDfkeapXehA7llhIPuK8103xjqdowS4QXAXs42uPxFd3o/xItrgLFPOF7eXeLkfg1ZSjKJoqiZTvdGmghY29xLEBzgHj8qoWEmr/ANrWkbyK0XmDdhByK9AmvNK1G0wUa3L9HU74z+Iqhb6G6XsUsBWVBk5jOe1JSLVmalvIQgB9KmJHbGTVQrJG3Ip/neoxUFnKaiUk1V98bt8zMpXopz1PtXNyufsmqyZzubaAPpW3dTk6kcM2GVmIHQ89659yDpNx28y4I/8AHgK1ijKRiDUXAwI1I9zUUl7I5yUUH1FRYFHanyo1sS/bp8Y+X8qVb+6Xo4H4VBilosgsWDqd6wx5x/IUx728cYadyKixS4osh2GFpD1dj+NNw3qfzqbHNG2ncXKRYb1J+ppNlTBc9KXYR1FAcpBso2eoqbFGKLj5SLZR5dS45peKVx8pD5YpfLqWjpRcOUi2gAgjORx7GprY9Oe9NIyKfCgGcetO90RKNndG1ACVAHWueuQfPcn++c11FpHhUNc7qKiK4mHYOelRDcuovdub2jKrRLUXiCPECDsHqvod4gAQ9ulX9cZZbQsvYg1LTUy004HLbOKTZjpU1JjNbXMXFDQcgglwT3BJxQImddvm7vTcBn8+9BApCuapSM3ST2LFpfXumSfubt4kzgqGIz+Brp9M+IM9rPi7gZGBx5ludpH1HeuUE7BdkiLInvTRb2s5+VzEw7Z4oai90Z8so7HtWleN7TUwEaSC7/2XHly//XrcRtMvPljuDbyH/lnOMfr0r55aynhYN99f7yDmtbTPFeq2bLCJWmQHAhmG78u9Zul1TGqjWj0O31rwjrOjpcan5yXSBDhFGAF9c5rkoZpWs7WOW3k/esJCwXIAz1zW/B43+12NxYlZ7Z5oypjDbkbj9K3dH1TT38N21tcWyuqQBC8LZPT+IUrtblaM8mFFHSjpVHQAFFFL+NIBMUoFGaXNABU0NzJCpCbOuclAT+tQ5ozQMtf2jd5BWYqR0KAL/Koprme4x50zybem5icVHRxQFg70GjIozQFhO9Hel4NFIYho7Up5pOlABUkbfOxCEJkY5zUeas2h3NtxQ9CGrmkLry4FK1i3B86SRj/Ea6EIGtHBXkKa5s0oFy7BamXzlJIyAFGBjgVu3Fu7abJIxzwKyrMZmFdTJGJNOaP1Q0py1JpR0Zx2KDyRzikPB6UlaCuWfsjNjZNA3t5gH88U17O4UZ8rI9VIP8qr0mfQflQIUmmMAeozS5pDTECu6fcldR7GpfMgkXE6Pu7SK3I/CoaafpTM3FM0tMdhdjM4kQK2N/J6e/SoEv0hkLRyy20vqDw35VROeuaNw27WVWX8jT06mTj2LdGabupN1QdVx2TS5xTc0Z+lAXHZozmmEjFLmgLj6MimbuKM80DuPzxRmmbuKM+tAXH7qM0zNLQFx+aQmm0d6AuOzilzTc0maB3HE8VZsXCy1UzUls+2ak9iW9TqVKtbt7iuSY4Yj0Nb0c22POe1YDNudj6mpgi5u5csCPMya6ZZcQEH+7XMWHMmBW3I+23Yk9BSmtQg9DmXb52+tNyaUnJJ96T6VqZhn0pCTRRQAmc0tJRTEIcetH40pHekoExpA700gdqfjmkwKZNiTNGaSikVcWjNJn2opWHcdnikopKLALmjNJR0osAuaXNNzRmiwXHZozxTc0ZosO4+gH1NM3Uu6iwXHlqTdzTc0mTQFyTNAzHLGW4DjIpmaY33gw6igmTNyPPkE9gCax92K0YZN1jIfRTWXn86mKLb2LthJtnFbF66ixkPtWRZREoXx/FWhqh26en+0wFTL4io7GGDS/jSfWitDMO1JS9qOtACUc0vagUwEooz7UUABpKD1ooJDOKM0UtABSUtAoHYKCDS0ZoASiloxQA3FGPWnUYpXCw3FJin4xSU7hYTFLikpaAsAoxmk5pDK0R3qqsV7MMg0A3ZXJGikWUxlTvHGBzUw0+7Cea8DpGOrMMVY0fxFZaarebZlpugkU8gfSkvtfF6HEQkUNx17HqKVpXtYjnhy3vqSw28ggmjUbtyfL7mmQ6SSR9onSIYzgfMaryaxM9m1qIEG5doYHmsbz76Pje/4801CQOtFbK510U0cEgto9vldmPWl1tG/s2B2GMSYz+FckmoXHRnx+FWBfySyRrcTSyR7uVDdval7J3uCxCtYmBpQRRgZyOnbNHag0F4pKMUYoGFFFGKAEPNFGKKYg4pKWigBBRmijjvQSFLSUUDuLRQKKBhS5pKKAFo60lLSAOtGKKMd6QwxRiiigAFBGeKKXIpgRPDG/VQarvaKOUYrVw00impMhwi+hUSOaORXR8MpyGHUVYyT98cnrS+vFOFNu5MYKOxEyI3amCFA2doqfHWmEHPAouNxRIB6UuTimKxBqTrSKQlKDRjijHNIoOKWkzS9RSASjtS9qKYCYoxS0lAH//Z;" vertex="1" parent="1">
          <mxGeometry x="60" y="140" width="160" height="160" as="geometry" />
        </mxCell>
        <mxCell id="8UH31n_FKA3EFoD4OGH5-4" value="" style="shape=image;verticalLabelPosition=bottom;labelBackgroundColor=#ffffff;verticalAlign=top;aspect=fixed;imageAspect=0;image=data:image/jpeg,/9j/4AAQSkZJRgABAQAAAQABAAD/2wBDAAgGBgcGBQgHBwcJCQgKDBQNDAsLDBkSEw8UHRofHh0aHBwgJC4nICIsIxwcKDcpLDAxNDQ0Hyc5PTgyPC4zNDL/2wBDAQkJCQwLDBgNDRgyIRwhMjIyMjIyMjIyMjIyMjIyMjIyMjIyMjIyMjIyMjIyMjIyMjIyMjIyMjIyMjIyMjIyMjL/wAARCAEAAQADASIAAhEBAxEB/8QAHwAAAQUBAQEBAQEAAAAAAAAAAAECAwQFBgcICQoL/8QAtRAAAgEDAwIEAwUFBAQAAAF9AQIDAAQRBRIhMUEGE1FhByJxFDKBkaEII0KxwRVS0fAkM2JyggkKFhcYGRolJicoKSo0NTY3ODk6Q0RFRkdISUpTVFVWV1hZWmNkZWZnaGlqc3R1dnd4eXqDhIWGh4iJipKTlJWWl5iZmqKjpKWmp6ipqrKztLW2t7i5usLDxMXGx8jJytLT1NXW19jZ2uHi4+Tl5ufo6erx8vP09fb3+Pn6/8QAHwEAAwEBAQEBAQEBAQAAAAAAAAECAwQFBgcICQoL/8QAtREAAgECBAQDBAcFBAQAAQJ3AAECAxEEBSExBhJBUQdhcRMiMoEIFEKRobHBCSMzUvAVYnLRChYkNOEl8RcYGRomJygpKjU2Nzg5OkNERUZHSElKU1RVVldYWVpjZGVmZ2hpanN0dXZ3eHl6goOEhYaHiImKkpOUlZaXmJmaoqOkpaanqKmqsrO0tba3uLm6wsPExcbHyMnK0tPU1dbX2Nna4uPk5ebn6Onq8vP09fb3+Pn6/9oADAMBAAIRAxEAPwD0OL5fWr0LVRjuB6Cm3WpbF8qBd0rcD2rzz1izqF+2RY2ah7mXjPZB6mrek+H7XTbWdVy8syEOx55x2qLSLAWimWT5riTlmP8AKtsN8lUjKpfZHPzu091afxbof5jFdiowoHoK4e0l829iI/5ZqF/8fxXc1vQ3ZjiOiCiiiug5QooooAKKKKACiiigAooooA5rXPDF7e3zX+j6w+l3cqLHM6wrIJVX7uc8gjJq9p2iSWttsvtTu9QlYDc8jbACBzgL0B/GtckAZPAoqeVF87tYx4NBs4YJFukFyTIzBpSWIXsOfSs9rDTEn+SygH/ABW9dSlGCdAwrxv4lfEJNB+06TYnOoPHjzFb/AFWc8/XHP41zzXPLlR0UnZOUj08RWijCwQr9EAqpciMDhVH0FfKU3ibXbiRJJNXvWdPukzNxXqPw/wDiVcX0iaTrsqtKflt7huC5/ut7+9TOi0rmlOqm9Tf8W+FdP1vULS4vPNYg+XsV8LjBPSp4LIPLHp0C7UOPMxxhB2rY1KQC4tfl6s7fkv8A9erOj2OxZLlx88h49hUc2hvbUkh0+O22+SoVBxtHatSIDApFXHHanqMVFxlqPGavQDpVCI1fgq4nLVLa9KdTV6Utd0djjGv0qhc96vueKz7jvXLVd2bUtzkGJA2KMmr2nWCofOcAuemaSC3BO48itBTj6e1YneWFFSFsJUAfFKX+Q00Q43OatWMYvyOqE4/77zXoQPyj6V58oL3GrJ0xgj8dprvlb5FOewram7NnNXWxJmlpgNOBrojK5zWKw1K0OqHTPPX7aIRP5XfZnG786tVzUEMUnxHurk582LTUixnjaXLZ/P8AlV3xLfalYaV52lW5nud4G3yy+B34BBo5tGyuS7SXU2KK8I1Lx741tIZ7W+jkiR87ZTbmN156giorT4q+IBaRJLMsjxzB97IAWUZypx1B/Oo9tE1+rTPfKK8Ob4x6yzk+Vaxpn/nkSPpnNb1h8ZImQC807Ld2glH8j/jR7aIPDVOh6nRXEQ/FPw9LC7ObmJ1UkI8ec8dMjNb2h+J9M12ygmguYVmkQM1uZBvQ9wR7VanF7MylTnHdGvIu+Mr602eeK2geeeRIokG53c4Cj1Jqvq1xLa6ReT29vLcTRwsyQxffc44A968z8Xa/q+t+BNYOr6NfeHLWCNXS5adS0r5wEKAcgk4pt2Eo3Og+IPiqDRPCT6taXEcrORHbsjBlZj3yPTB/KvlC/upr29lubiRpJZWLO7Hkk12U+vtqvw5sdInmllns7xnyR8ojI4A/HNcfdx7cMFIU9BWUdGzdp8hXDZqV7p38oZI8r7hHUd6gHXrSjlvetDI+lfDtzJrum6BdTA75bZmfPcgAE12aIFXA4ArkvBfl/wDCP+HGjBVTZNww5/hz/WuwBGK4Jbnox2DbkUgGDThSjrSHcmiq/COBVBOKvwHgVcTmqllelKTTQaM10qWhyCOeKz7hutXpDgVmXDc1hUep0UVqctD4s8PHgazYkf8AXZf8auL4h0V/u6tZH/tuv+NUD4W8Pt97RrE/9sF/wpD4O8Nt10Sy/wC/QqfdOxRl3NddY0twNuo2h+ky/wCNPGoWZB23cDfSRT/WsFvAvhh/+YLa/gpFRt8PvCzf8wqMf7rsP60tA5ZF+K4t2vdSCzR5MCsfnHqRXZrcw+WuJUPA6MDXnJ+G/hc8iwdf924cf1pR8O/D6/6sXqf7t5IP61d0jGdKUtz0lJVYZBJ+gqTf/ssfwrzUeAtLX/V3urR/7t8/+NSr4PSMAQ67rkeOn+mE/wA6anYh4Z9y1b69ND8UNRgTS7u5SZIbfzYgCsQUZZmyeg3DpXfZry2DwM1rdyXdp4i1eCeQku6yKS2eueK0I9F1+H/V+M9U9hJFE/8ANa0jVSJlh5PY6XxJbeIL1IodEnsYYmBEzXKFz7YGCPzrkrX4O6c0rz6jqVxPJIdzLCixLnvjrV77J4qC4Xxc5x3bT4Sf5VE9p4x/g8VxD2OnIP5Gk5wbuy406sVZNHW6d4Z0fS9NXT7awg+zj7wdAxc+rE9TXPa38KvDOrozQWx064PSS1+UZ916Gs0R/ECIkx+J9PkB7S2H+Bp63fxFj/5iOgS/71rIv8mq+em0ZezrJ3R5/r3wv8U6Dvns9uqWi85gGJAPdD/TNcYmqywylJEeOVTyCCGU/wBK92XWPiDH96Lw9L9PNWsLxBp+ueIlJ1LwpoM0p6Tw3Txyf99Y5/HNZy9m9joi6y3RymjfETW7SI28eoyhCMAS4fb9CelafizVNI8V6JdSPe6lb6m1vHH9lM2bebYQenQE9cn0rl5fh74rjlbybKPZngeepwPrxmopvDXijT4zJcaVKyDqYiHI/AUk3HZlOEZbo6HWvBtivw/0yDw+YLi+j/f3hSQb3yvOcnqMgfhXmt/ZNLbblHKjpWlLqbxkp88ci8FTkEVdsrN7mE7RnPY1PM46spU1L3UcTJb3NxKSsGWC8rGvQAegrtPh/wCCX1W+W+1K3IsU5VHGPNb/AAq1bafeaDMb+NY1IUqC4yOeK77wT4mg14Na3cUcN/B95UPDqO4/rVuq5R90yVBQl7x0ozHf2UaBVVIpAoAwAPlHFaccz4qq8MZ1WDaflEEh/VKtrEMcNWDN0iVZT3FSo+agVD/eFTKCKkdi0jVdhbpVCMHNW4utWjmqJF4HilzUanigtV8xy2GTNxWdO1XZTWfN1qJM6aKM4NSg81CD708H3pHYTBqdn3qENS7unNAybNLmoQ3NKGxQImBpc1CHpd1AWJQaN1RB+tKGpCsS5pCaj3A0bqAsP3UZ96jLUm/FA7D801jimFuKQtQMUnvTC3ekLe+KjdjtODzjg+lAjj/HUvhe2tVbW7ZJZ3/1Yj4lPvkdvrXl0WqX/kyS6epjtI22lgu7ZnpuPrx+lUPEWs3Gr63c3F04dg5RcdAAcDAqCw1a602O4W1dl84AEA9CDw2PUcj8a61TVrPU5HVd77Gs3ibUWtmgmaKRCMHelZ+m3s9nqUNzFK0Lh+ZE4IBPOKqNIHYMoYKQOG6570/IAGOpOKpQiloJyct2fScQH26Mbi221HzN1OT1/SrYA9arW0OLmI9/safzNXPKODXEzqQLkdzUyE8VEemKkU0hlqNjVuNqooeasxt0powqIu78CjfUO7igNzVXMOUSU1RlNWpWBqjM3WpZvSRlBgKcGqANTg1M6ScN6GnBsVBupQ9AXJ99JuqEvQG9TQJk+73pQ/vVYPTt9AEwenb6rK/Wjfg0CuWQ9G/mq++k39OaLAWd9Jv96g3e1G+gZNvz2pCw71DvpC/pQBKW9643xz4yg8PWElpE5OpTRZiAGQoPGT+tdYz188eO7mafxjqfn5JWYoueyjoPyrSlFNmNabjHQn0aC2eNPPiVy43MWHc1Nr3h2K2tDf2JwqDMkZOcD1FVtMJ+ywOOPlAra1K4P/CP3YPTyiKlykpqzNFGLpO6OME4k2/KFxUgb94PaqUZxitSyjjuDHCisZpDjJ7knAArsZxRZ9M2rbrmA+tov86tkccdaz7YlLyJTwVttv6ir24HvXns7UFKmc00+9C560iiypqwhqohzVhTimmZTROW4pN1RFqTdTuRyiyNVSYjBqV296qzNSZrFWMcNzTt3vVfdzTt/NWWWN9G+oN9G73oETb6XfUAb3pd3WgCcPxRuH41CDSg0AShzik35qLcKN1AEwfnrSbucVET70Bsd+aAJg/60u+q4fPNKHoAm3etJu561FvzSbqQyUtzXjnxY0tINZttQiXAuoyJOOCy9/rjH5V675mc15f8WtRB+wWCyLkbpXQdR2H9a1pfEY1rchgaTFu0uFh97GAAOtT604j8Oz9Pm2j9aj0Wzkn0yJXDbMZ4pnik+RpkUH95/wCVQtaljR3jRbfY5FScda6vwBayXfieziXDIJBK+RnAT5v54rlB6Y/CvUfhRpoBvNTY9MQKPyJ/pXVUdonFTV5HqkUx/tQj0gH/AKFWirbk61hwNjWJvaBOP+BNWpHJkVws7UyznilU+3X3qItTlbmkUWkNTA8VWRu1TA8UImSHsabmkJpM0xJCN0qrMOtWHYYqu5zxSKRz5PApS3SkYZUUY+WtQHZozSEHAo5oAdmjNN7Uc5pAPDcUbvem9KOaBDt1G7imnPpSUDH5pN3NN5ooAduo3ZxzVa6u4LKEy3EgRR61zEvjuz810jzhTwV70m+xUY33djsN3ajJ615de+Nbp9WiltZJmA+UQqOGJ6Vbk1TxjdrldLmUHpuGP50Wn0Qe51Z38t3DChLSD6CuH1Wx0i81qXU74iR2AVUY/KoHTjvWLrC+J7LS2vb5TFGG2su4cA9OhrjbjVriX70jH61SpTl1IlWpw6HoN94isLeIJBGpIwoA4xXH+Jb9Ly8RFIKIOD65rHieeeQAdTUr2lxHM8cissinDKxwQfSt6WHUNUc9bEuorEKgf3h9AK9Y+GVyv9i3UAUgpPuz65A/wrzFLZz/ABj867X4e3X2PUp7aWQDzkBUZ7g//XrSrB8plTklI9Nhf/iaznv5SfzatFHIrHjkxqcw45iQ/qa0I5cj6etcTOyJpBtwFSIcnFVI5KsK3fPNSUW0qUNUCPnrUueKQ2KWFAYYqImgNxQFh7dOtQt15pk1zHEVVpFVmBwD3xTFk3SBUKPxltrj5eM85oE3YzxAuz76/nTvs67cbk/OvHY/Gt5M4SO6RmPQCJf8KG8bXqD5rqMDOOYl/wAK35GZe0PYvs42j51/Ol+zjP3h+deNp45u2IAu4iT/ANMl/wAKcfGt+GC/aYs+nlr/AIUcjF7U9h+zj+8v50423T5l/OvG/wDhNdQ3FftMeRxjyl/wpjeOr5W2m5i3enlL/hRyMPao9m+y8/eH50v2U+o/OvFX8f3qHBuYh/2xX/ChfiDdkgfa4f8Avyv+FP2bD2qPavs3PUfnSfZuOq/nXjDePbxPvXMQ/wC2K/4Un/CwLr/n6h/78r/hS9mw9qj2f7L7j86qajNBpdobm4YhAwUBRuJJ6DAryP8A4T+5/wCfqH/vyv8AhR/wnl0/H2mE5/6Yr/hRyMPaon8T6/d67fraW1nKFTICKCWP1xVfQ/DGo6tq7afcRtbmMB55M8xrj7uPU0xPF88UTQwSW8PUZihUEH14HWmWXiiXToitvJGu47mcoCzH1JIyavltsDmn1PU9K8KWemWS24hjl2Sb1kZRuz2JPrWs1seM8147/wAJ7c55uYh/wAf4UHx5cHrdx/8AfI/wqeRsFVijqfig09vo1vGoXyZJhvOfm4BOAK8ac7nJH3e2euK6LxH4in1m3hieYOisWwvrisWKFm5KYHvXTSjZWOWrK8rhapMW+Vdy/dz02571pi28p9rSBz6hs5qvGdnC7PwGacs2772a3irMyZYMe1gR+NdD4NER8RwmUqWCNsyOhxXNGddpXPI6Vp+HW3a/YhXKHzQMjr9Px6UqjvFoqnpJM9YzjUnbsYV/9Car0UnIrPOf7QZcdIQfzY/4VaiJzXmM9FGmj/nVpH4FZ6N71biapGXkc1NuxVeJckYNWmiYLnFIoiMgpQ4Pfmq8hwcd6jMhA60AYfjCR1W2SNsM27B+pArk57q5sryCzE7MSWV2B+9jqa3fFcqSSRI4dlCgEJ94gnnHvXLykHWIwAQqRM2CfpVxWhnLc43R7SzhvFaSVkJXktjFQXtvbee0IcSqDk7WqJm+Q4PaqNqrRluDzXSrnI9yy1tAEbZEcgcfMetVIIZHTeVxtPfirpmO3B4oWUCJlJBBFNNiaQ+F1niVgE8zse4qvNaKsbyMPn5Ofeq9u6WchYEknoO9Szz3FxGdw8uP07mizuK6sZ0pDYPtzUYpzqBkg/hQRtUZ6mtDIdKrIQrHJxUdWbxcSgEj7oqvgY6igHuJVhB+5XqeTwBzVfmpVZgnAII6EUAixHjcoHYGnszFSxUgAVTEh3jdx7itG3xKdpkLKF3D69gaTKWpmMDvPU0mD6GtV7XcR5kQz6g1TkiEZHyY9eaFJMHBoSNf3IyDye3FT5yNqghfemRqdo2jj3NSFiDjBB961iSSBgFHSjOdwJHNM6qc1DK7ABs+1NsAeXLgA9OtXdPvjaXUUvIaNw6keoOazY1yfvAfWtvQrNLvWbS1UBjJIAWbgY61F9LlLc9bsvGOmXd5I+oWrW7vGgzH0754P19a6K1isdQUGwvYpSeik4b8jXFzaO8V7JHLCeY1Yce5H9Krf2V5bFoXeJuo2muFpPY7k2ejGwmhPzRsPwpyqY25FcdYeJfEGkBV8wXcA/gk54/z9K6fT/HWi3xEeoW72cx4yBkZ+n/66nlZXPbdG7YRGeQbWQYPRmxXQT2CiAkdQK811rV/suqFtOuo5YDGCoYHYT9euevH0rKXUbq5ud73Mp3S8DecYzxxRFK2qJmpNppnaznbI23nmq7uCOtNEpkQN61GxB61Jqcx4gcrqKATiE/LiQjO2ucds6xMcfcgxn6n/wCtW7q7O+qEoiPsJzvPAGOv1rnHb/S9UkB5VFX+Zq4mcmcj9kZjjoajWxlDEcfnWnJC5GUOGqFCzNhgQ1Xzsz5EV10x2HT8M0HTGHHB9qvqZF/iPFW4x5oH971NHtGh+zTMCTTHLB0wriopIJDGQwAaur+zqwwwwapXlnhSduR6imqt2S6Njj5LdkPzYPoKieJjk9TWo1vK0zO6YUcDNSrbhv4fyrX2ljJUrmVKklwwfyyPlA5potm9K3ZYAhHGRioTAGOQRU+0H7Iy0s3z1Aq7DYuFy351Oo2nkCr0Jj2D96q+zHik5sqNJGNNYgnIplvaSpNw5Cd8GtiVYC2fMUH2PFRl4xwWU+4o52HskRLvTgHI9DTx5Ln958p9xUZdc53Aj6UmVz94/TFIuwt1AgjDxPnB7VXWGWXoBU52kfKT9DVq1xuGRVKcooXsoyepSXTbp+kZI9qgubJopfKlGGHPFdrbSKsPrXMam4lv5GXIAOKUa0pOzLnh4QV0JY6DHcrkzlfbbmr0tidB8q4tyJpt2PmXIx9KuaSpWMGjXJCsEZC5+f6dqn2knKzL9jFU7pamhpvjh7eWIyrJAv3W/jjI+h6c12VlrGmamm4opJ/5aW7Z/NT0rx4mMjKfISeVPAP5U9VljZZLUss3+w2PyNU6aexhzyjue4xaVFdAm0mjm45UHDfkeapXehA7llhIPuK8103xjqdowS4QXAXs42uPxFd3o/xItrgLFPOF7eXeLkfg1ZSjKJoqiZTvdGmghY29xLEBzgHj8qoWEmr/ANrWkbyK0XmDdhByK9AmvNK1G0wUa3L9HU74z+Iqhb6G6XsUsBWVBk5jOe1JSLVmalvIQgB9KmJHbGTVQrJG3Ip/neoxUFnKaiUk1V98bt8zMpXopz1PtXNyufsmqyZzubaAPpW3dTk6kcM2GVmIHQ89659yDpNx28y4I/8AHgK1ijKRiDUXAwI1I9zUUl7I5yUUH1FRYFHanyo1sS/bp8Y+X8qVb+6Xo4H4VBilosgsWDqd6wx5x/IUx728cYadyKixS4osh2GFpD1dj+NNw3qfzqbHNG2ncXKRYb1J+ppNlTBc9KXYR1FAcpBso2eoqbFGKLj5SLZR5dS45peKVx8pD5YpfLqWjpRcOUi2gAgjORx7GprY9Oe9NIyKfCgGcetO90RKNndG1ACVAHWueuQfPcn++c11FpHhUNc7qKiK4mHYOelRDcuovdub2jKrRLUXiCPECDsHqvod4gAQ9ulX9cZZbQsvYg1LTUy004HLbOKTZjpU1JjNbXMXFDQcgglwT3BJxQImddvm7vTcBn8+9BApCuapSM3ST2LFpfXumSfubt4kzgqGIz+Brp9M+IM9rPi7gZGBx5ludpH1HeuUE7BdkiLInvTRb2s5+VzEw7Z4oai90Z8so7HtWleN7TUwEaSC7/2XHly//XrcRtMvPljuDbyH/lnOMfr0r55aynhYN99f7yDmtbTPFeq2bLCJWmQHAhmG78u9Zul1TGqjWj0O31rwjrOjpcan5yXSBDhFGAF9c5rkoZpWs7WOW3k/esJCwXIAz1zW/B43+12NxYlZ7Z5oypjDbkbj9K3dH1TT38N21tcWyuqQBC8LZPT+IUrtblaM8mFFHSjpVHQAFFFL+NIBMUoFGaXNABU0NzJCpCbOuclAT+tQ5ozQMtf2jd5BWYqR0KAL/Koprme4x50zybem5icVHRxQFg70GjIozQFhO9Hel4NFIYho7Up5pOlABUkbfOxCEJkY5zUeas2h3NtxQ9CGrmkLry4FK1i3B86SRj/Ea6EIGtHBXkKa5s0oFy7BamXzlJIyAFGBjgVu3Fu7abJIxzwKyrMZmFdTJGJNOaP1Q0py1JpR0Zx2KDyRzikPB6UlaCuWfsjNjZNA3t5gH88U17O4UZ8rI9VIP8qr0mfQflQIUmmMAeozS5pDTECu6fcldR7GpfMgkXE6Pu7SK3I/CoaafpTM3FM0tMdhdjM4kQK2N/J6e/SoEv0hkLRyy20vqDw35VROeuaNw27WVWX8jT06mTj2LdGabupN1QdVx2TS5xTc0Z+lAXHZozmmEjFLmgLj6MimbuKM80DuPzxRmmbuKM+tAXH7qM0zNLQFx+aQmm0d6AuOzilzTc0maB3HE8VZsXCy1UzUls+2ak9iW9TqVKtbt7iuSY4Yj0Nb0c22POe1YDNudj6mpgi5u5csCPMya6ZZcQEH+7XMWHMmBW3I+23Yk9BSmtQg9DmXb52+tNyaUnJJ96T6VqZhn0pCTRRQAmc0tJRTEIcetH40pHekoExpA700gdqfjmkwKZNiTNGaSikVcWjNJn2opWHcdnikopKLALmjNJR0osAuaXNNzRmiwXHZozxTc0ZosO4+gH1NM3Uu6iwXHlqTdzTc0mTQFyTNAzHLGW4DjIpmaY33gw6igmTNyPPkE9gCax92K0YZN1jIfRTWXn86mKLb2LthJtnFbF66ixkPtWRZREoXx/FWhqh26en+0wFTL4io7GGDS/jSfWitDMO1JS9qOtACUc0vagUwEooz7UUABpKD1ooJDOKM0UtABSUtAoHYKCDS0ZoASiloxQA3FGPWnUYpXCw3FJin4xSU7hYTFLikpaAsAoxmk5pDK0R3qqsV7MMg0A3ZXJGikWUxlTvHGBzUw0+7Cea8DpGOrMMVY0fxFZaarebZlpugkU8gfSkvtfF6HEQkUNx17HqKVpXtYjnhy3vqSw28ggmjUbtyfL7mmQ6SSR9onSIYzgfMaryaxM9m1qIEG5doYHmsbz76Pje/4801CQOtFbK510U0cEgto9vldmPWl1tG/s2B2GMSYz+FckmoXHRnx+FWBfySyRrcTSyR7uVDdval7J3uCxCtYmBpQRRgZyOnbNHag0F4pKMUYoGFFFGKAEPNFGKKYg4pKWigBBRmijjvQSFLSUUDuLRQKKBhS5pKKAFo60lLSAOtGKKMd6QwxRiiigAFBGeKKXIpgRPDG/VQarvaKOUYrVw00impMhwi+hUSOaORXR8MpyGHUVYyT98cnrS+vFOFNu5MYKOxEyI3amCFA2doqfHWmEHPAouNxRIB6UuTimKxBqTrSKQlKDRjijHNIoOKWkzS9RSASjtS9qKYCYoxS0lAH//Z;" vertex="1" parent="1">
          <mxGeometry x="70" y="150" width="160" height="160" as="geometry" />
        </mxCell>
        <mxCell id="8UH31n_FKA3EFoD4OGH5-5" value="" style="shape=image;verticalLabelPosition=bottom;labelBackgroundColor=#ffffff;verticalAlign=top;aspect=fixed;imageAspect=0;image=data:image/jpeg,/9j/4AAQSkZJRgABAQAAAQABAAD/2wBDAAgGBgcGBQgHBwcJCQgKDBQNDAsLDBkSEw8UHRofHh0aHBwgJC4nICIsIxwcKDcpLDAxNDQ0Hyc5PTgyPC4zNDL/2wBDAQkJCQwLDBgNDRgyIRwhMjIyMjIyMjIyMjIyMjIyMjIyMjIyMjIyMjIyMjIyMjIyMjIyMjIyMjIyMjIyMjIyMjL/wAARCAEAAQADASIAAhEBAxEB/8QAHwAAAQUBAQEBAQEAAAAAAAAAAAECAwQFBgcICQoL/8QAtRAAAgEDAwIEAwUFBAQAAAF9AQIDAAQRBRIhMUEGE1FhByJxFDKBkaEII0KxwRVS0fAkM2JyggkKFhcYGRolJicoKSo0NTY3ODk6Q0RFRkdISUpTVFVWV1hZWmNkZWZnaGlqc3R1dnd4eXqDhIWGh4iJipKTlJWWl5iZmqKjpKWmp6ipqrKztLW2t7i5usLDxMXGx8jJytLT1NXW19jZ2uHi4+Tl5ufo6erx8vP09fb3+Pn6/8QAHwEAAwEBAQEBAQEBAQAAAAAAAAECAwQFBgcICQoL/8QAtREAAgECBAQDBAcFBAQAAQJ3AAECAxEEBSExBhJBUQdhcRMiMoEIFEKRobHBCSMzUvAVYnLRChYkNOEl8RcYGRomJygpKjU2Nzg5OkNERUZHSElKU1RVVldYWVpjZGVmZ2hpanN0dXZ3eHl6goOEhYaHiImKkpOUlZaXmJmaoqOkpaanqKmqsrO0tba3uLm6wsPExcbHyMnK0tPU1dbX2Nna4uPk5ebn6Onq8vP09fb3+Pn6/9oADAMBAAIRAxEAPwD3nqKjdc1KBTSKwkjROxUkjzUBSrzrkVAy1k0bwmV9lOWPmpdlPVOaVi3MI4x6VZUYpqripQK1pxuznlK44UUUV0mQUUUUAQzDKmsa78uMF5TtjXlj7Vc17VIdF0a71GdlCQRlsMcbj2H1NfNOv+L/ABR4l1KW8t7uW0tuVjgibChff1Nck43kddC6V0e3XUFjcLuN0yqRkHyzWNd6JpTqS2sBDz1hNeTaF4317TL5YNSuRJbIMFJh2HofWvTLhodS0qK7i5jmjDxt6ZFQ4OJ0xlzHL6/ptpLD9mg1Oxdsgus5K8dqb4V0tYjcKbaBFDBRJE+9ZOO1Ou9FQxXMlykczyYbLDOMDAxXUeH9DQoFKKkYHCqMU3K0bAo+9qaFnp8axgIqgf7IrUhsQD0q1bWCQLhRV1IgO1ZXNbpFWOzHTFWktgO1WUjqZY6EjOVSxVW3HpTxb+1XFjqQIKrlMXVZQ+ze1H2UelaAjHpS+XRyk+2ZnfZh6Uhtge1aJQAVDIQDgUcpSqtmJdzwQRGZ52jjUlSfJ3ZPTrmq6yK6b5opmiIyskcWcj3Gcir6rB/ZYWQqdxbOfqarRavYWg8qSdVUcc0jdXs2iH7NZ3C7kebHtH/9eqcun2MZJaecf9sf/r1ozajocx3fbIkc/wASNg1RudRtOQmoWzjsHHP6UAtTvaQ06kNd0keWMIqJl5qamEVztFJkeKeq0AU8CkkNsUCniminCuiCIYtFFFaEhRRRQB4h8d9alW503REZlidfPkAOA3OB/I157JfRjTVaGPDL8uB0rv8A4xaLJN4usdRnBa0aDyP90g5/XNcLcQx2yrBAF2Pj5duSa4ptcx6mHi1C5kX919us45HgyYuHfGMjtXqvhEQ3XgyySBywjQoc9jk8VxU2g315aBYIgI5F5B4x9c103hUr4X02Gyu3DSzykkDkIPXNRKaasjRU2pXN+fTZRayM7Z+U9q6zT7UQQqMDOK8/Hjmzllv4bjEcEbbYmHJbBq5ofxDS41W6W7YfZGP+jBE+Yc9D+FLoNrseiBOKlRajikSVAyEEHmpVpJGUmyVAKmUVEtTqKtI55DwKeBTVFSDpVGLYYpQKWinYm4hUHtUZhQ/w1LRRYE2jMt7KJ7UBkBGW/maik8P6dLnzLRGq9p4P2GInqQT+Zqzip5TV1ZX3OebwppJ6WSioW8IaWf8Al0H510+KQihxGq811JqQ0tJXZI5hppMUporBlCUClxRQkAopw6U0U6toITFoooqyQqOe4htYWmnkWONcZZjgDPFSV5D4q8YPqcs8KNtsUbaqf3sHqayq1ORG9Ci6srdEdb46vLAaWYpVt7iYMCsEnf8ALpXmCpa2xLoir3yeTXPan4jVpxmVuvzHPJqjPeXN2TuYxpgHryQa4pRlN3Z6dJxpR5U7nQ3XiJVkENvmSVjtUD1NbNn4F1DUXWfWLwwgdIYuSPqelef2oEN0jjqGBB+hr36C5iubaKeFw0cigjFDSjsPmctzy/xD8Nbq0Z59LJuLc87Wb5lP9axfDGixTa8ianc/ZYYHxKnOS2cbcjpXuV78tk3IH3f5iuM8J6Vbjx14gZtrR7YpPKZQQWYtzz6Y/WrTbRDaR3WnabbaZbCC1QqmcnLEkn8avLTccU4CpMW7ky9KlWol6VMKpGEiRakFRiniqRkx1FJS1RIUjfdb6GlpD0NFwIbP/jyg/wCua/yqeq1gf9Ag/wBwVYBpXBi0GjNJmgCWkpaSutkCUYpTSVixhRRS00gAUtJS1pEQtFFFUIOvFfK2vXc6NPCOGikeOTHQFWIP8q+qa+TfiAXt/HGvWsbFYjeOSo9+f61nUhzWOjD1OW67nIzTl5Qc9DmtXRpmmupVkcsXG45Pesl49xyOlS2bm2nD8+maUo3jZFwk1O7O4t4LeVlLvtC8cevetXU9YbS9NtrnTrm4RoZQHXorKe1c1ZXkON3G7ufWk1zVYJdPFnG2XZwWwegFcsYNyR3SmlBnokvjiO6trCRLqN4LudoZI2wJIdpUgnHY5x+FbPhq3WHxrrTqWzMiO2T6M39K8CeaZYkiVvkVtyjvk+9dn4f8Y6taa3eauipLbQRQpdxkHPl5C7h756/WtZ0tNDmjVvufRA6UoqKCZJ7eOaNtySKGUjuDzUq1gDJVqZelRLUo6U0ZSHipBTAKeKpGTFpaSiqJFpGOFJ9qKZKf3L/7p/lRcEiGwGLCAH+4DViorddttEvogH6VLUlPcCaSlpKBE9JRRXY2ZgaSiismMKM0UU0wF60opBSiriAooooqyQr5X+KMSx/EbWQveVW/EqDX1RXzb8a7Rbf4gSSr/wAvFvHIfqAV/wDZRSZpS3POGwBikUqQQaZJUfzHpUmrZZC4BAdgD2FJGijJOfrmmCVUtypVmmDZDZ+UL/jUXmtuznmgdzVs7UNc+bIcIgyB6mvWvhRpFpqPgjUFubZD9rmkjZyo3FCB3+teV6av2iQRs20MMEgZxx1r3L4XwrbeDbONc4ZRIcjH3smuepLQ3itiz8Pb+b+y7jQr1ib3R5jbPn+JP4G/L+VdkK4vV7ddA8c6fr4O221ECwu+wD/8s3P5YrtlFZPuJj1qdaiWploRjIeKcKQU4VSMmFFFLVCEqOYZt5R/sH+VS4prj5G+hosCepHCcwRkd1H8qkqKz/48oD/0zX+VTYpWG3qJRS4oxRYVySjFFFdTJCkopKhsBaTNJS1Nxi5pRTaUHmrg9RMfRTWYIpZjgDrVaHUrScHZMpI7Z5rRyS3BRb1SLdfPnx2tvL8XWdxuz51mBj02s3+Ne6y6pbxpuBLDg5Hucfzr57+MerrqnjQwoMLZQrCc/wB4ksf5io54vRGlOEk7tHmzio8Y5qQjmmn0qi2NzxzTUTe3HI9TTiMnHYVNCOcY69qAS1NC1DxQM65yFJyPpXv3gsXNrpNna3iLHOlpFuRegwCB/KvFNMRDJHlQ65+ZT3HpXtWh30d5N9oAaNjGqbD04J6H8a4as7aM76dNvVG74g0tdc8PXlh0eWM+W391xyp/AgVH4N1S71bw7DNqCLHfRM0FwqnOHQ7Tn34z+NacLZGDWFAf7F8ayRfdtNYTzE9BcIPmH/Alwf8AgJpRd0YTR1irmplUioVbFTo2RTOeVx4FLijNLVoyYUUUVSEFNlO2F29FJp1QXpIsLjHXy2/lTGtx1uuy2iT0QD9Klpqf6tfoKcKEDDFLiiinoIWilorWwhKSlpKhgFFGaM1OgwoFJmkJwCaL2CxzXiLWxFG1qrlS8ixEj3rg/DctxD43jgnvXJ2MpikB+cdQVPQ0/wAXXrLqS88fbENR6bJ9n8cwJvaESSNiNxuR8g8o38LeorFu+rPQUVFWR2gbbpzFm+5C4z/uvXzl4l1D+0/EWo3vaad2H0zx+lfQGq3UNloV/JO2I0hu1POM89P1r5we2dw7rhlU9c1rh46NmdR20Kp6008fWlYlTgimGTmugxFxjjvUsRAOScZ6k96gJzSqSeg79aATsdJpscFwLOO3ufLvJrjytsn3Oehz1HpXbwjW9CkUXFrOv914vnU4+lch4BS0fxbZi8CbRkoH/v44Ne+SxeXLZsBj97t/NT/9auSslezR2UJtK6OX0zx6FAS4GcevBrYu9V07X7WJfNaCe3lS4ilUjKMp/qMg+xrbk060uRie1hl/30BrE1DwPa3Est3YgQSiMCOFPlQnvke/Subkt8LNXOm37yLtv430zzRFM7KP+eu3AP4V1NrPDdQJNBIskbjIZTkGvEn8uMvDMNrqTlT1HPINdX4MlnivYIYb3yIyfntphuEi+qns1EZu9mGIwcVBziemAUuKcoGKUj3rujT0ueRcZilxRS0WATFNkTzI3Q/xAin0UWQEFu4ktonHQoD+lTVDagC3AHQFh+pqcUJXB7iUYpaKdgDNBNNzRRzBYU0hpaaal3BDS2KbuOaCaUdKzLFzSSH9230paZKf3bfSgFueLeN22XTsOqzqf1p6SfZfGtu294VlnXqN8UhI/wDHWqLx4MTXPs4NMnm8nxDZzbngDvFmRBvjfpw47H0NS1od/U3PiHfRWPhi5WWNZDPcPEinsWGc/hivFF3rDJNGiO2CuwsNvI6465FejfFydzd2tsCdgkZ8e5Va81YgjDLn3xXdh4L2Zx1pe+VJY2VyHcMe+BURQetPkC5JDFTUTNIcZYEeoNa2MrgUUHuakiZopFfy1eNTlozxuHpmhfkADSLk08eUTyC/1o5QuavhnV4tD8QW2pTQrJFHJlk7hTwce4r6KfVNOntreSOSTaZo2U7exI/oa+YJySuAu0dhivRNM1bSV0+xjl16aKRQpkUlsKQPp64rkxMNmb0Zbo9xS9sD/wAtyP8AgJqxFeWQbIuV/EEV5LFrelnGzxUB/vH/ABFXItZtjjy/Fdof95l/wrks0dDhF9TU8Y6XbQ6wupoDJbSMJJTFwVCj58/8By31WtWDwfHOjKL+JYSUeG4gPLr9OgPTketYceqyyxlB4i0uRSMFWdOR+dVvD+oahDFPpSajpriyYRxs0g+eMjKkHPPHH4UrJ62NeeaSipWO2TWYbGZLeTVFYxIUcNtyzf3j71q6LqEd6Cv2uO4kQclSBkZ9BXBNp9zNK0rW2mzMxySJDz+taGnR6lp7s9rpNorMMEpKeaIScZXMqlKLWm56LgHvSba49dV1peW0lT/uyn/CpV8Q6og+fRpT/uyf/Wro9vHqjl+rS6HV7aNvvXLf8JJe/wAWk3QHs4qK68UyxWrn7DeI7DahwD8x4Hen7eHYPq8zp7VSbZTjG4lvzJNTgGuXj8URRRoht70bQBzF/wDXqZfFtp/GLhfrA1JVoCdCp2OiwaTmsEeLNO/iuCv+9Ew/pUg8VaYf+X2IfXIqva0xexqdjXHQUtNQho1I6EA06kiB4GaRhxTHmWLGQTmq82q2kELyTSLGqZzvOOgz/KtHKNrCUZPVD2zmkyTxVPQte0vxNYveaTdLcQLIY2YKRhsA45HoRWk7QwjMjqn1NZ+zZfN0GKppXjLIQKyb7xZpNgShm8yQfwRjJ/KsO48V6xf/ACabY+Up6PL1/Kk+Rbs0jSqS1scr460xt90ZCEBG4E8VPFYaLdWNjrMl/JbPFAgZlYbZCMcEVieJbXWdQnk+3TvKYz0AwBXPW1lLNIlmzt5RkHyFjt54BxWe6Oy2upofFO8sr6Sya2mDuBvO3pggAc/8BrzhiFXA/Qmun11Lf7YLOOVTNHI8ZReR8ucfSuemtynVDmu2hKMYJXOOrCTk2kUn6feY+2KqsMyBRySemKuOq91P61qaLpFzchriICOIqVVzjJPoM9PrVVKkYq7ZEKUpO1jISML82wn3yKeTxxx+VWrm0a0naCUMki9RnIqtIOPvH9K05o20ZDjJdCJFEsqrw3PcV0kWgTSgMGHI/uisfStPlv75Ioz83X5ugFem2ts6xRxhNxCgHA61w4qry25WduFo81+ZHIN4ckXguCcf3aibw7MpyzIPQYOT+tehjTQfvkLn+EdaemlMB8iKq+p61xfWWdn1ZdDzY6BeAZ2oB7tVeXSrqGWNzbuwJ2kAjmvS20uUsdijjuaiGhyySmSY4VegHNWsTbcl4XsefLZXGcLb3Cn2bP8ASneXfxdHuVPoCf8AGvQRp7fdjXC92Ip6aZE7bQhd/XoKX1ldh/Vn3OCiudWjORd3yD1Ejf41YTXdcjOI9Zv/AKec3+Nd4+j4QsVCrVdrGJRtjgV27kjij6wn0B4ZrqcpH4p8UoQF1q8JPQFyanj8Y+K2dGOrSEocqHGcH16V0TaaknHlhT329KcNNQrsEO36d6TrpdA+reZjL8QvFMRw19A/+/Gn+FWE+JviNT8yWUn1hH9DV4aFFnfImQKqXGlxt8qxhV+nWmqsX0E8O11Jo/ihq3/LTSrCQd8KR/WrMfxObOJvDcDf7khFZsegQHDCID3I60P4eSVgBEgUe1HtIdhewl3PcdAnN34d024zkyWsTE++0ZrSCn0rhNC8YaPo2l22lyzNuigjMIxndlQSox3BJ/Cp5vF2pXxKaZp7qp6STfL+nWuzmglqecqE5PRHV3rw28DzzyrGiKSSx4Feca74l0y+ZrezuBOJ0KkpEWK5GD9OKtXeia3q6M19dykY+5GNo+nrV7RvDFjpkaTTeWmDyDyawm1J3R1U6apq7dzO0J7vTNJj03QtMS1hHLysNpkbGNxA5J/GtJPDOpaid1/ezMD1RTtX9K3LnWtL0uEuzRRoB9+Vgg/WuJ1n4t6fAWisVlvJOg8sbE/M8n8BVaPd3Fzv7Mbep19r4c0vTlwypu9AMk1DqfibRdBiJnmt7fHRWO5z9FHNeIav8TNd1N3hjlNuhODHbDB/Futc632meMzTQPvbkvO+0f4mqUbeROst3c7DxV8Qk1G/c6fDI/GN0g2599orltP1S5m1m0lnmYos6FsHaijPes8h2XYzfJnpGNoP17mjy93H8PYdhQ+VaI1jTm9XoWtReE+I7y4jkEiG6dkKcggtnOa13iidMsimsKIGGRJIztdTlT6GthTtiAB4Iz+dRJ3OinBRMi9hjBOFxV7T9SFpbRxGEsq+jYqnecyY9TSquBRKzVmEI+82aFwbfUrwzrEyAgDaTnmmz2MCRkhfzplodp/GpLxzsPpUreyKaVmP8OT2NjeyzXW4DbtUKue9dhH4j0tyAtyI190IrgEQeQkm9SXzlR1XBxzTsVNSmpO7NKWkT0631zRFX/j+gL/7RI/nVoaxpjH/AJCNqfbzABXlGPxpcVi8Ou5tznrw1LTnAEd5as3/AF1FSLPbBTuuIXJ6BXBrx0jjpRkjpU/Vl3HznsaWwl+YlQp54NWEEcI2xAM/1rxgSSDpI4+jU9Lq5i5S4lU+zkUvq3mHMevyWryNvnb5f7oFSJbqwKwxjHckcV5GNY1ILgX9zj0801Yj8SazEAE1KcAdi2afsJdxXPVRZRRdeWPIqK6hO0E9P7ucV5ovi3XEORfMc+qg5/Snf8JjrBOXljf/AHoxS9hK4XPQxA04ABAHtTzYRwLkr5jn8hXCQ+PdUiTZ5VsffYQf51L/AMJ5dtjzLWJvYMRQ6UydDsTbPMcKig+lTLYGJf3j8nsOtclb/EPyQc6aD7iX/wCtU/8AwseBjl9Ok/CQf4VDpVOiGmjutG8G6XFo9t9uWP8AeRo+OjZIB6jnNaMk6aJbkwX0DRKPvXqjI/4ECM/jXld98Rtb1JBbaVZi3jC7QVBdwPr0FcfeTXl9cE313Lczd0DbyP6CvSSb2PIevxO56Zr/AMUZrdGitb+2mk6EWtu2B/wJjj9DXH3Xj/X7i0iiZvsylceeU5k99x4H4VgrDHb8yyJCewT53/Pt+VNN5GjEww73/wCesxLt+tJ29TSFOXTQluJJrsC4llmvJieclto9y5/pUEcixBg8pjD/AHlhbJI9N3YVDLNPcHMsrPj1PH5U0Jj0p30saxoK+osD/ZJ5ZLQGMP2Y7iKRzJK26RmY+rHNPCj0pwFS2bxgloiIJ0p+2pAKXA9KVy1Ej2+1aGGEcfGQVFVdvFabxFI4AeCF5z0xjj8aVwcTGuYwJ1znBNOAyOlLJOJb5VKgqhyVqQjJ9KbFTW5JaKhb5vXiodSl25ReKk8zylUhQpXO5sn5gcY/L+tVJ90zb+voPWhbkVHpYkhG2JQfSpMDrVyLS2liEkU8HlEcNNKqMf8AgOcipBpeMbr+yX/trn+QpM1hsjPHNLwalmiEUpRZUlA/jTOD+YFRgGkXYTFLjFOxRTCw00gFOopCEpKWkJoAQ5pv0p+abxTEJ1o9qPrQTTEJj3pKUmkzzQDHy6jcTRiJ5ZGT+6PkT8hUHmSbNgOxP7qDApQvFOA4qnK5jClGJGEFOCU/tSjFTc1URu0CnbcU4DJowaVyrCAUYp46UuOaB2G7c0Ac8U6lpDsIFyRWxehXtAMBjjvWXHGZHCrjPXk4HHNXJJfMgBHQjrSa1Im7IyoIlRpDj5ietTbcU2Pnf9akAz3qmFL4R8CB3KkZBWnGz2kuRwOhNLbDE4+lWbt8QHNJPUVQzycnNFJHymad9aGaR+FCfjRj3pSOM0cjrSGJRRRTATijilwDSYoEGMdKQ4AyadSHmmIbkUmB9adzim4GOpoAQgn8KQ8U7pTTjrTJYlJSgCigRftdA1O6QSi1MUX/AD1nIiT82xUV9ZJZOqJeW9yx+95BJC/iQM/hVe5vbm7k33E8kzersWP61FmgSHjHelyKZ9KdkCgq4/qPSlqPNKG5oGmSDpS5z7VHmlzzSKuScUYpuTQCe/WkO5Jxgg1KzZhG01Xzz0qaEb8rQRUV0QRfx0+kZSjn0pM02FLSJbs8edz6Gkv2xER2FJZnM4+hpuqhliPv0FJbk1SC3/1KmpcA803akWFR96gDnGM8UoIznNDNo7IXGBTSOKUmkyKQw70ECl7cUZxQIbkUnBpetJigQh+tJTqTFMQmaD70uPWk+tAhpNJTsD0pppiaE+tJ1pcZpCKYiAGlzgVGM07JqrGSY8HFLmo804HNKxQ/NKGzTfrRmgdx+7FODelR5FLnmlYaZLnijOOtR5pQetKxVyTd6VNbN+/XHequantXJlWJVGXdfmxkjHYfWh7CbL17blbcuFOAQTWdnpiuzvdOLeHp5UIDJHk1xAbHU1EJcyKa5TQ00F71APQ5pmsNuukjB4HJq34fAkuJyFywTj86rahaypdmW7zEJAdhAzyBxTXxWInsimDTt3NQg0u7FVYpSJt1IXqLfRnJosHMS7wDgUF8gc0wY9aOO9AXHhjSk1Hu6ikDcUWHcl3UbqjoJ4osFx5IoyAKj3e9JnjrRYXMSg/hSZNR5ANBYUWDmH5pDyaZupCeKBXK3I6UuTTQfalzmtDG44ZzzS5wKbuFGRQFx+fagGmZxSbsHJpWHcl96Nw/Goi49abvxRYOYsbxS719arb/AMqXORRYOYmMgFXtDe2l1hPtMwiiiRpGY9OBWSzED+lVZVLnrinyp6MzlUa2PTpfEGnLZTxxM1wvlsWWPjj8a4IE7FkKkI+dpI64NZpExAAZce4qaNHCBWcnHQdhSjSjBaC9tUm/eR1nhG6t49VPnyrGjJgFjgE56V0/iXS7a/0uaeCZBJCPMUbgc46/pXlzXFzEECMxWMkoAfuk9x+Qoa+1CZy/mOjNnc+7k569PrUujeXMmV9ZklyOJbVi2DnFP71UiJRQM1Mr+9U0XGRMDS5FRbs96M1JVyXtmkBqPd60u7Oadg5h+aXNR5pN2eaVguSbqA2ajDc+tG6nYLj80bqZuoJ5oC48txRkmmZpN3FArkmabmm7qbmiwXISeKXcfSm9aUVZkANFHFFABu5pCTS4zRtAoDUbmnDrnNGKQ4oAXOBmmmQ9qMYpuM0xBuyetAA65ox7UAUCHdKUNxUZyKbk0rBclzS1Dk+tKGPemFybIpQ1Q7qeGFKw0yUNin7s1Bu96cGx0pWL5iXOaTvTA/NLu5pBcfmlzxTd1GeOaY7i5FFJmk70CuLmjcR0pCaQ9KAuOozxim54pN1FguPzSZpm6lzxTsK5/9k=;" vertex="1" parent="1">
          <mxGeometry x="40" y="400" width="160" height="160" as="geometry" />
        </mxCell>
        <mxCell id="8UH31n_FKA3EFoD4OGH5-6" value="" style="shape=image;verticalLabelPosition=bottom;labelBackgroundColor=#ffffff;verticalAlign=top;aspect=fixed;imageAspect=0;image=data:image/jpeg,/9j/4AAQSkZJRgABAQAAAQABAAD/2wBDAAgGBgcGBQgHBwcJCQgKDBQNDAsLDBkSEw8UHRofHh0aHBwgJC4nICIsIxwcKDcpLDAxNDQ0Hyc5PTgyPC4zNDL/2wBDAQkJCQwLDBgNDRgyIRwhMjIyMjIyMjIyMjIyMjIyMjIyMjIyMjIyMjIyMjIyMjIyMjIyMjIyMjIyMjIyMjIyMjL/wAARCAEAAQADASIAAhEBAxEB/8QAHwAAAQUBAQEBAQEAAAAAAAAAAAECAwQFBgcICQoL/8QAtRAAAgEDAwIEAwUFBAQAAAF9AQIDAAQRBRIhMUEGE1FhByJxFDKBkaEII0KxwRVS0fAkM2JyggkKFhcYGRolJicoKSo0NTY3ODk6Q0RFRkdISUpTVFVWV1hZWmNkZWZnaGlqc3R1dnd4eXqDhIWGh4iJipKTlJWWl5iZmqKjpKWmp6ipqrKztLW2t7i5usLDxMXGx8jJytLT1NXW19jZ2uHi4+Tl5ufo6erx8vP09fb3+Pn6/8QAHwEAAwEBAQEBAQEBAQAAAAAAAAECAwQFBgcICQoL/8QAtREAAgECBAQDBAcFBAQAAQJ3AAECAxEEBSExBhJBUQdhcRMiMoEIFEKRobHBCSMzUvAVYnLRChYkNOEl8RcYGRomJygpKjU2Nzg5OkNERUZHSElKU1RVVldYWVpjZGVmZ2hpanN0dXZ3eHl6goOEhYaHiImKkpOUlZaXmJmaoqOkpaanqKmqsrO0tba3uLm6wsPExcbHyMnK0tPU1dbX2Nna4uPk5ebn6Onq8vP09fb3+Pn6/9oADAMBAAIRAxEAPwD3nqKjdc1KBTSKwkjROxUkjzUBSrzrkVAy1k0bwmV9lOWPmpdlPVOaVi3MI4x6VZUYpqripQK1pxuznlK44UUUV0mQUUUUAQzDKmsa78uMF5TtjXlj7Vc17VIdF0a71GdlCQRlsMcbj2H1NfNOv+L/ABR4l1KW8t7uW0tuVjgibChff1Nck43kddC6V0e3XUFjcLuN0yqRkHyzWNd6JpTqS2sBDz1hNeTaF4317TL5YNSuRJbIMFJh2HofWvTLhodS0qK7i5jmjDxt6ZFQ4OJ0xlzHL6/ptpLD9mg1Oxdsgus5K8dqb4V0tYjcKbaBFDBRJE+9ZOO1Ou9FQxXMlykczyYbLDOMDAxXUeH9DQoFKKkYHCqMU3K0bAo+9qaFnp8axgIqgf7IrUhsQD0q1bWCQLhRV1IgO1ZXNbpFWOzHTFWktgO1WUjqZY6EjOVSxVW3HpTxb+1XFjqQIKrlMXVZQ+ze1H2UelaAjHpS+XRyk+2ZnfZh6Uhtge1aJQAVDIQDgUcpSqtmJdzwQRGZ52jjUlSfJ3ZPTrmq6yK6b5opmiIyskcWcj3Gcir6rB/ZYWQqdxbOfqarRavYWg8qSdVUcc0jdXs2iH7NZ3C7kebHtH/9eqcun2MZJaecf9sf/r1ozajocx3fbIkc/wASNg1RudRtOQmoWzjsHHP6UAtTvaQ06kNd0keWMIqJl5qamEVztFJkeKeq0AU8CkkNsUCniminCuiCIYtFFFaEhRRRQB4h8d9alW503REZlidfPkAOA3OB/I157JfRjTVaGPDL8uB0rv8A4xaLJN4usdRnBa0aDyP90g5/XNcLcQx2yrBAF2Pj5duSa4ptcx6mHi1C5kX919us45HgyYuHfGMjtXqvhEQ3XgyySBywjQoc9jk8VxU2g315aBYIgI5F5B4x9c103hUr4X02Gyu3DSzykkDkIPXNRKaasjRU2pXN+fTZRayM7Z+U9q6zT7UQQqMDOK8/Hjmzllv4bjEcEbbYmHJbBq5ofxDS41W6W7YfZGP+jBE+Yc9D+FLoNrseiBOKlRajikSVAyEEHmpVpJGUmyVAKmUVEtTqKtI55DwKeBTVFSDpVGLYYpQKWinYm4hUHtUZhQ/w1LRRYE2jMt7KJ7UBkBGW/maik8P6dLnzLRGq9p4P2GInqQT+Zqzip5TV1ZX3OebwppJ6WSioW8IaWf8Al0H510+KQihxGq811JqQ0tJXZI5hppMUporBlCUClxRQkAopw6U0U6toITFoooqyQqOe4htYWmnkWONcZZjgDPFSV5D4q8YPqcs8KNtsUbaqf3sHqayq1ORG9Ci6srdEdb46vLAaWYpVt7iYMCsEnf8ALpXmCpa2xLoir3yeTXPan4jVpxmVuvzHPJqjPeXN2TuYxpgHryQa4pRlN3Z6dJxpR5U7nQ3XiJVkENvmSVjtUD1NbNn4F1DUXWfWLwwgdIYuSPqelef2oEN0jjqGBB+hr36C5iubaKeFw0cigjFDSjsPmctzy/xD8Nbq0Z59LJuLc87Wb5lP9axfDGixTa8ianc/ZYYHxKnOS2cbcjpXuV78tk3IH3f5iuM8J6Vbjx14gZtrR7YpPKZQQWYtzz6Y/WrTbRDaR3WnabbaZbCC1QqmcnLEkn8avLTccU4CpMW7ky9KlWol6VMKpGEiRakFRiniqRkx1FJS1RIUjfdb6GlpD0NFwIbP/jyg/wCua/yqeq1gf9Ag/wBwVYBpXBi0GjNJmgCWkpaSutkCUYpTSVixhRRS00gAUtJS1pEQtFFFUIOvFfK2vXc6NPCOGikeOTHQFWIP8q+qa+TfiAXt/HGvWsbFYjeOSo9+f61nUhzWOjD1OW67nIzTl5Qc9DmtXRpmmupVkcsXG45Pesl49xyOlS2bm2nD8+maUo3jZFwk1O7O4t4LeVlLvtC8cevetXU9YbS9NtrnTrm4RoZQHXorKe1c1ZXkON3G7ufWk1zVYJdPFnG2XZwWwegFcsYNyR3SmlBnokvjiO6trCRLqN4LudoZI2wJIdpUgnHY5x+FbPhq3WHxrrTqWzMiO2T6M39K8CeaZYkiVvkVtyjvk+9dn4f8Y6taa3eauipLbQRQpdxkHPl5C7h756/WtZ0tNDmjVvufRA6UoqKCZJ7eOaNtySKGUjuDzUq1gDJVqZelRLUo6U0ZSHipBTAKeKpGTFpaSiqJFpGOFJ9qKZKf3L/7p/lRcEiGwGLCAH+4DViorddttEvogH6VLUlPcCaSlpKBE9JRRXY2ZgaSiismMKM0UU0wF60opBSiriAooooqyQr5X+KMSx/EbWQveVW/EqDX1RXzb8a7Rbf4gSSr/wAvFvHIfqAV/wDZRSZpS3POGwBikUqQQaZJUfzHpUmrZZC4BAdgD2FJGijJOfrmmCVUtypVmmDZDZ+UL/jUXmtuznmgdzVs7UNc+bIcIgyB6mvWvhRpFpqPgjUFubZD9rmkjZyo3FCB3+teV6av2iQRs20MMEgZxx1r3L4XwrbeDbONc4ZRIcjH3smuepLQ3itiz8Pb+b+y7jQr1ib3R5jbPn+JP4G/L+VdkK4vV7ddA8c6fr4O221ECwu+wD/8s3P5YrtlFZPuJj1qdaiWploRjIeKcKQU4VSMmFFFLVCEqOYZt5R/sH+VS4prj5G+hosCepHCcwRkd1H8qkqKz/48oD/0zX+VTYpWG3qJRS4oxRYVySjFFFdTJCkopKhsBaTNJS1Nxi5pRTaUHmrg9RMfRTWYIpZjgDrVaHUrScHZMpI7Z5rRyS3BRb1SLdfPnx2tvL8XWdxuz51mBj02s3+Ne6y6pbxpuBLDg5Hucfzr57+MerrqnjQwoMLZQrCc/wB4ksf5io54vRGlOEk7tHmzio8Y5qQjmmn0qi2NzxzTUTe3HI9TTiMnHYVNCOcY69qAS1NC1DxQM65yFJyPpXv3gsXNrpNna3iLHOlpFuRegwCB/KvFNMRDJHlQ65+ZT3HpXtWh30d5N9oAaNjGqbD04J6H8a4as7aM76dNvVG74g0tdc8PXlh0eWM+W391xyp/AgVH4N1S71bw7DNqCLHfRM0FwqnOHQ7Tn34z+NacLZGDWFAf7F8ayRfdtNYTzE9BcIPmH/Alwf8AgJpRd0YTR1irmplUioVbFTo2RTOeVx4FLijNLVoyYUUUVSEFNlO2F29FJp1QXpIsLjHXy2/lTGtx1uuy2iT0QD9Klpqf6tfoKcKEDDFLiiinoIWilorWwhKSlpKhgFFGaM1OgwoFJmkJwCaL2CxzXiLWxFG1qrlS8ixEj3rg/DctxD43jgnvXJ2MpikB+cdQVPQ0/wAXXrLqS88fbENR6bJ9n8cwJvaESSNiNxuR8g8o38LeorFu+rPQUVFWR2gbbpzFm+5C4z/uvXzl4l1D+0/EWo3vaad2H0zx+lfQGq3UNloV/JO2I0hu1POM89P1r5we2dw7rhlU9c1rh46NmdR20Kp6008fWlYlTgimGTmugxFxjjvUsRAOScZ6k96gJzSqSeg79aATsdJpscFwLOO3ufLvJrjytsn3Oehz1HpXbwjW9CkUXFrOv914vnU4+lch4BS0fxbZi8CbRkoH/v44Ne+SxeXLZsBj97t/NT/9auSslezR2UJtK6OX0zx6FAS4GcevBrYu9V07X7WJfNaCe3lS4ilUjKMp/qMg+xrbk060uRie1hl/30BrE1DwPa3Est3YgQSiMCOFPlQnvke/Subkt8LNXOm37yLtv430zzRFM7KP+eu3AP4V1NrPDdQJNBIskbjIZTkGvEn8uMvDMNrqTlT1HPINdX4MlnivYIYb3yIyfntphuEi+qns1EZu9mGIwcVBziemAUuKcoGKUj3rujT0ueRcZilxRS0WATFNkTzI3Q/xAin0UWQEFu4ktonHQoD+lTVDagC3AHQFh+pqcUJXB7iUYpaKdgDNBNNzRRzBYU0hpaaal3BDS2KbuOaCaUdKzLFzSSH9230paZKf3bfSgFueLeN22XTsOqzqf1p6SfZfGtu294VlnXqN8UhI/wDHWqLx4MTXPs4NMnm8nxDZzbngDvFmRBvjfpw47H0NS1od/U3PiHfRWPhi5WWNZDPcPEinsWGc/hivFF3rDJNGiO2CuwsNvI6465FejfFydzd2tsCdgkZ8e5Va81YgjDLn3xXdh4L2Zx1pe+VJY2VyHcMe+BURQetPkC5JDFTUTNIcZYEeoNa2MrgUUHuakiZopFfy1eNTlozxuHpmhfkADSLk08eUTyC/1o5QuavhnV4tD8QW2pTQrJFHJlk7hTwce4r6KfVNOntreSOSTaZo2U7exI/oa+YJySuAu0dhivRNM1bSV0+xjl16aKRQpkUlsKQPp64rkxMNmb0Zbo9xS9sD/wAtyP8AgJqxFeWQbIuV/EEV5LFrelnGzxUB/vH/ABFXItZtjjy/Fdof95l/wrks0dDhF9TU8Y6XbQ6wupoDJbSMJJTFwVCj58/8By31WtWDwfHOjKL+JYSUeG4gPLr9OgPTketYceqyyxlB4i0uRSMFWdOR+dVvD+oahDFPpSajpriyYRxs0g+eMjKkHPPHH4UrJ62NeeaSipWO2TWYbGZLeTVFYxIUcNtyzf3j71q6LqEd6Cv2uO4kQclSBkZ9BXBNp9zNK0rW2mzMxySJDz+taGnR6lp7s9rpNorMMEpKeaIScZXMqlKLWm56LgHvSba49dV1peW0lT/uyn/CpV8Q6og+fRpT/uyf/Wro9vHqjl+rS6HV7aNvvXLf8JJe/wAWk3QHs4qK68UyxWrn7DeI7DahwD8x4Hen7eHYPq8zp7VSbZTjG4lvzJNTgGuXj8URRRoht70bQBzF/wDXqZfFtp/GLhfrA1JVoCdCp2OiwaTmsEeLNO/iuCv+9Ew/pUg8VaYf+X2IfXIqva0xexqdjXHQUtNQho1I6EA06kiB4GaRhxTHmWLGQTmq82q2kELyTSLGqZzvOOgz/KtHKNrCUZPVD2zmkyTxVPQte0vxNYveaTdLcQLIY2YKRhsA45HoRWk7QwjMjqn1NZ+zZfN0GKppXjLIQKyb7xZpNgShm8yQfwRjJ/KsO48V6xf/ACabY+Up6PL1/Kk+Rbs0jSqS1scr460xt90ZCEBG4E8VPFYaLdWNjrMl/JbPFAgZlYbZCMcEVieJbXWdQnk+3TvKYz0AwBXPW1lLNIlmzt5RkHyFjt54BxWe6Oy2upofFO8sr6Sya2mDuBvO3pggAc/8BrzhiFXA/Qmun11Lf7YLOOVTNHI8ZReR8ucfSuemtynVDmu2hKMYJXOOrCTk2kUn6feY+2KqsMyBRySemKuOq91P61qaLpFzchriICOIqVVzjJPoM9PrVVKkYq7ZEKUpO1jISML82wn3yKeTxxx+VWrm0a0naCUMki9RnIqtIOPvH9K05o20ZDjJdCJFEsqrw3PcV0kWgTSgMGHI/uisfStPlv75Ioz83X5ugFem2ts6xRxhNxCgHA61w4qry25WduFo81+ZHIN4ckXguCcf3aibw7MpyzIPQYOT+tehjTQfvkLn+EdaemlMB8iKq+p61xfWWdn1ZdDzY6BeAZ2oB7tVeXSrqGWNzbuwJ2kAjmvS20uUsdijjuaiGhyySmSY4VegHNWsTbcl4XsefLZXGcLb3Cn2bP8ASneXfxdHuVPoCf8AGvQRp7fdjXC92Ip6aZE7bQhd/XoKX1ldh/Vn3OCiudWjORd3yD1Ejf41YTXdcjOI9Zv/AKec3+Nd4+j4QsVCrVdrGJRtjgV27kjij6wn0B4ZrqcpH4p8UoQF1q8JPQFyanj8Y+K2dGOrSEocqHGcH16V0TaaknHlhT329KcNNQrsEO36d6TrpdA+reZjL8QvFMRw19A/+/Gn+FWE+JviNT8yWUn1hH9DV4aFFnfImQKqXGlxt8qxhV+nWmqsX0E8O11Jo/ihq3/LTSrCQd8KR/WrMfxObOJvDcDf7khFZsegQHDCID3I60P4eSVgBEgUe1HtIdhewl3PcdAnN34d024zkyWsTE++0ZrSCn0rhNC8YaPo2l22lyzNuigjMIxndlQSox3BJ/Cp5vF2pXxKaZp7qp6STfL+nWuzmglqecqE5PRHV3rw28DzzyrGiKSSx4Feca74l0y+ZrezuBOJ0KkpEWK5GD9OKtXeia3q6M19dykY+5GNo+nrV7RvDFjpkaTTeWmDyDyawm1J3R1U6apq7dzO0J7vTNJj03QtMS1hHLysNpkbGNxA5J/GtJPDOpaid1/ezMD1RTtX9K3LnWtL0uEuzRRoB9+Vgg/WuJ1n4t6fAWisVlvJOg8sbE/M8n8BVaPd3Fzv7Mbep19r4c0vTlwypu9AMk1DqfibRdBiJnmt7fHRWO5z9FHNeIav8TNd1N3hjlNuhODHbDB/Futc632meMzTQPvbkvO+0f4mqUbeROst3c7DxV8Qk1G/c6fDI/GN0g2599orltP1S5m1m0lnmYos6FsHaijPes8h2XYzfJnpGNoP17mjy93H8PYdhQ+VaI1jTm9XoWtReE+I7y4jkEiG6dkKcggtnOa13iidMsimsKIGGRJIztdTlT6GthTtiAB4Iz+dRJ3OinBRMi9hjBOFxV7T9SFpbRxGEsq+jYqnecyY9TSquBRKzVmEI+82aFwbfUrwzrEyAgDaTnmmz2MCRkhfzplodp/GpLxzsPpUreyKaVmP8OT2NjeyzXW4DbtUKue9dhH4j0tyAtyI190IrgEQeQkm9SXzlR1XBxzTsVNSmpO7NKWkT0631zRFX/j+gL/7RI/nVoaxpjH/AJCNqfbzABXlGPxpcVi8Ou5tznrw1LTnAEd5as3/AF1FSLPbBTuuIXJ6BXBrx0jjpRkjpU/Vl3HznsaWwl+YlQp54NWEEcI2xAM/1rxgSSDpI4+jU9Lq5i5S4lU+zkUvq3mHMevyWryNvnb5f7oFSJbqwKwxjHckcV5GNY1ILgX9zj0801Yj8SazEAE1KcAdi2afsJdxXPVRZRRdeWPIqK6hO0E9P7ucV5ovi3XEORfMc+qg5/Snf8JjrBOXljf/AHoxS9hK4XPQxA04ABAHtTzYRwLkr5jn8hXCQ+PdUiTZ5VsffYQf51L/AMJ5dtjzLWJvYMRQ6UydDsTbPMcKig+lTLYGJf3j8nsOtclb/EPyQc6aD7iX/wCtU/8AwseBjl9Ok/CQf4VDpVOiGmjutG8G6XFo9t9uWP8AeRo+OjZIB6jnNaMk6aJbkwX0DRKPvXqjI/4ECM/jXld98Rtb1JBbaVZi3jC7QVBdwPr0FcfeTXl9cE313Lczd0DbyP6CvSSb2PIevxO56Zr/AMUZrdGitb+2mk6EWtu2B/wJjj9DXH3Xj/X7i0iiZvsylceeU5k99x4H4VgrDHb8yyJCewT53/Pt+VNN5GjEww73/wCesxLt+tJ29TSFOXTQluJJrsC4llmvJieclto9y5/pUEcixBg8pjD/AHlhbJI9N3YVDLNPcHMsrPj1PH5U0Jj0p30saxoK+osD/ZJ5ZLQGMP2Y7iKRzJK26RmY+rHNPCj0pwFS2bxgloiIJ0p+2pAKXA9KVy1Ej2+1aGGEcfGQVFVdvFabxFI4AeCF5z0xjj8aVwcTGuYwJ1znBNOAyOlLJOJb5VKgqhyVqQjJ9KbFTW5JaKhb5vXiodSl25ReKk8zylUhQpXO5sn5gcY/L+tVJ90zb+voPWhbkVHpYkhG2JQfSpMDrVyLS2liEkU8HlEcNNKqMf8AgOcipBpeMbr+yX/trn+QpM1hsjPHNLwalmiEUpRZUlA/jTOD+YFRgGkXYTFLjFOxRTCw00gFOopCEpKWkJoAQ5pv0p+abxTEJ1o9qPrQTTEJj3pKUmkzzQDHy6jcTRiJ5ZGT+6PkT8hUHmSbNgOxP7qDApQvFOA4qnK5jClGJGEFOCU/tSjFTc1URu0CnbcU4DJowaVyrCAUYp46UuOaB2G7c0Ac8U6lpDsIFyRWxehXtAMBjjvWXHGZHCrjPXk4HHNXJJfMgBHQjrSa1Im7IyoIlRpDj5ietTbcU2Pnf9akAz3qmFL4R8CB3KkZBWnGz2kuRwOhNLbDE4+lWbt8QHNJPUVQzycnNFJHymad9aGaR+FCfjRj3pSOM0cjrSGJRRRTATijilwDSYoEGMdKQ4AyadSHmmIbkUmB9adzim4GOpoAQgn8KQ8U7pTTjrTJYlJSgCigRftdA1O6QSi1MUX/AD1nIiT82xUV9ZJZOqJeW9yx+95BJC/iQM/hVe5vbm7k33E8kzersWP61FmgSHjHelyKZ9KdkCgq4/qPSlqPNKG5oGmSDpS5z7VHmlzzSKuScUYpuTQCe/WkO5Jxgg1KzZhG01Xzz0qaEb8rQRUV0QRfx0+kZSjn0pM02FLSJbs8edz6Gkv2xER2FJZnM4+hpuqhliPv0FJbk1SC3/1KmpcA803akWFR96gDnGM8UoIznNDNo7IXGBTSOKUmkyKQw70ECl7cUZxQIbkUnBpetJigQh+tJTqTFMQmaD70uPWk+tAhpNJTsD0pppiaE+tJ1pcZpCKYiAGlzgVGM07JqrGSY8HFLmo804HNKxQ/NKGzTfrRmgdx+7FODelR5FLnmlYaZLnijOOtR5pQetKxVyTd6VNbN+/XHequantXJlWJVGXdfmxkjHYfWh7CbL17blbcuFOAQTWdnpiuzvdOLeHp5UIDJHk1xAbHU1EJcyKa5TQ00F71APQ5pmsNuukjB4HJq34fAkuJyFywTj86rahaypdmW7zEJAdhAzyBxTXxWInsimDTt3NQg0u7FVYpSJt1IXqLfRnJosHMS7wDgUF8gc0wY9aOO9AXHhjSk1Hu6ikDcUWHcl3UbqjoJ4osFx5IoyAKj3e9JnjrRYXMSg/hSZNR5ANBYUWDmH5pDyaZupCeKBXK3I6UuTTQfalzmtDG44ZzzS5wKbuFGRQFx+fagGmZxSbsHJpWHcl96Nw/Goi49abvxRYOYsbxS719arb/AMqXORRYOYmMgFXtDe2l1hPtMwiiiRpGY9OBWSzED+lVZVLnrinyp6MzlUa2PTpfEGnLZTxxM1wvlsWWPjj8a4IE7FkKkI+dpI64NZpExAAZce4qaNHCBWcnHQdhSjSjBaC9tUm/eR1nhG6t49VPnyrGjJgFjgE56V0/iXS7a/0uaeCZBJCPMUbgc46/pXlzXFzEECMxWMkoAfuk9x+Qoa+1CZy/mOjNnc+7k569PrUujeXMmV9ZklyOJbVi2DnFP71UiJRQM1Mr+9U0XGRMDS5FRbs96M1JVyXtmkBqPd60u7Oadg5h+aXNR5pN2eaVguSbqA2ajDc+tG6nYLj80bqZuoJ5oC48txRkmmZpN3FArkmabmm7qbmiwXISeKXcfSm9aUVZkANFHFFABu5pCTS4zRtAoDUbmnDrnNGKQ4oAXOBmmmQ9qMYpuM0xBuyetAA65ox7UAUCHdKUNxUZyKbk0rBclzS1Dk+tKGPemFybIpQ1Q7qeGFKw0yUNin7s1Bu96cGx0pWL5iXOaTvTA/NLu5pBcfmlzxTd1GeOaY7i5FFJmk70CuLmjcR0pCaQ9KAuOozxim54pN1FguPzSZpm6lzxTsK5/9k=;" vertex="1" parent="1">
          <mxGeometry x="50" y="410" width="160" height="160" as="geometry" />
        </mxCell>
        <mxCell id="8UH31n_FKA3EFoD4OGH5-7" value="" style="shape=image;verticalLabelPosition=bottom;labelBackgroundColor=#ffffff;verticalAlign=top;aspect=fixed;imageAspect=0;image=data:image/jpeg,/9j/4AAQSkZJRgABAQAAAQABAAD/2wBDAAgGBgcGBQgHBwcJCQgKDBQNDAsLDBkSEw8UHRofHh0aHBwgJC4nICIsIxwcKDcpLDAxNDQ0Hyc5PTgyPC4zNDL/2wBDAQkJCQwLDBgNDRgyIRwhMjIyMjIyMjIyMjIyMjIyMjIyMjIyMjIyMjIyMjIyMjIyMjIyMjIyMjIyMjIyMjIyMjL/wAARCAEAAQADASIAAhEBAxEB/8QAHwAAAQUBAQEBAQEAAAAAAAAAAAECAwQFBgcICQoL/8QAtRAAAgEDAwIEAwUFBAQAAAF9AQIDAAQRBRIhMUEGE1FhByJxFDKBkaEII0KxwRVS0fAkM2JyggkKFhcYGRolJicoKSo0NTY3ODk6Q0RFRkdISUpTVFVWV1hZWmNkZWZnaGlqc3R1dnd4eXqDhIWGh4iJipKTlJWWl5iZmqKjpKWmp6ipqrKztLW2t7i5usLDxMXGx8jJytLT1NXW19jZ2uHi4+Tl5ufo6erx8vP09fb3+Pn6/8QAHwEAAwEBAQEBAQEBAQAAAAAAAAECAwQFBgcICQoL/8QAtREAAgECBAQDBAcFBAQAAQJ3AAECAxEEBSExBhJBUQdhcRMiMoEIFEKRobHBCSMzUvAVYnLRChYkNOEl8RcYGRomJygpKjU2Nzg5OkNERUZHSElKU1RVVldYWVpjZGVmZ2hpanN0dXZ3eHl6goOEhYaHiImKkpOUlZaXmJmaoqOkpaanqKmqsrO0tba3uLm6wsPExcbHyMnK0tPU1dbX2Nna4uPk5ebn6Onq8vP09fb3+Pn6/9oADAMBAAIRAxEAPwD3nqKjdc1KBTSKwkjROxUkjzUBSrzrkVAy1k0bwmV9lOWPmpdlPVOaVi3MI4x6VZUYpqripQK1pxuznlK44UUUV0mQUUUUAQzDKmsa78uMF5TtjXlj7Vc17VIdF0a71GdlCQRlsMcbj2H1NfNOv+L/ABR4l1KW8t7uW0tuVjgibChff1Nck43kddC6V0e3XUFjcLuN0yqRkHyzWNd6JpTqS2sBDz1hNeTaF4317TL5YNSuRJbIMFJh2HofWvTLhodS0qK7i5jmjDxt6ZFQ4OJ0xlzHL6/ptpLD9mg1Oxdsgus5K8dqb4V0tYjcKbaBFDBRJE+9ZOO1Ou9FQxXMlykczyYbLDOMDAxXUeH9DQoFKKkYHCqMU3K0bAo+9qaFnp8axgIqgf7IrUhsQD0q1bWCQLhRV1IgO1ZXNbpFWOzHTFWktgO1WUjqZY6EjOVSxVW3HpTxb+1XFjqQIKrlMXVZQ+ze1H2UelaAjHpS+XRyk+2ZnfZh6Uhtge1aJQAVDIQDgUcpSqtmJdzwQRGZ52jjUlSfJ3ZPTrmq6yK6b5opmiIyskcWcj3Gcir6rB/ZYWQqdxbOfqarRavYWg8qSdVUcc0jdXs2iH7NZ3C7kebHtH/9eqcun2MZJaecf9sf/r1ozajocx3fbIkc/wASNg1RudRtOQmoWzjsHHP6UAtTvaQ06kNd0keWMIqJl5qamEVztFJkeKeq0AU8CkkNsUCniminCuiCIYtFFFaEhRRRQB4h8d9alW503REZlidfPkAOA3OB/I157JfRjTVaGPDL8uB0rv8A4xaLJN4usdRnBa0aDyP90g5/XNcLcQx2yrBAF2Pj5duSa4ptcx6mHi1C5kX919us45HgyYuHfGMjtXqvhEQ3XgyySBywjQoc9jk8VxU2g315aBYIgI5F5B4x9c103hUr4X02Gyu3DSzykkDkIPXNRKaasjRU2pXN+fTZRayM7Z+U9q6zT7UQQqMDOK8/Hjmzllv4bjEcEbbYmHJbBq5ofxDS41W6W7YfZGP+jBE+Yc9D+FLoNrseiBOKlRajikSVAyEEHmpVpJGUmyVAKmUVEtTqKtI55DwKeBTVFSDpVGLYYpQKWinYm4hUHtUZhQ/w1LRRYE2jMt7KJ7UBkBGW/maik8P6dLnzLRGq9p4P2GInqQT+Zqzip5TV1ZX3OebwppJ6WSioW8IaWf8Al0H510+KQihxGq811JqQ0tJXZI5hppMUporBlCUClxRQkAopw6U0U6toITFoooqyQqOe4htYWmnkWONcZZjgDPFSV5D4q8YPqcs8KNtsUbaqf3sHqayq1ORG9Ci6srdEdb46vLAaWYpVt7iYMCsEnf8ALpXmCpa2xLoir3yeTXPan4jVpxmVuvzHPJqjPeXN2TuYxpgHryQa4pRlN3Z6dJxpR5U7nQ3XiJVkENvmSVjtUD1NbNn4F1DUXWfWLwwgdIYuSPqelef2oEN0jjqGBB+hr36C5iubaKeFw0cigjFDSjsPmctzy/xD8Nbq0Z59LJuLc87Wb5lP9axfDGixTa8ianc/ZYYHxKnOS2cbcjpXuV78tk3IH3f5iuM8J6Vbjx14gZtrR7YpPKZQQWYtzz6Y/WrTbRDaR3WnabbaZbCC1QqmcnLEkn8avLTccU4CpMW7ky9KlWol6VMKpGEiRakFRiniqRkx1FJS1RIUjfdb6GlpD0NFwIbP/jyg/wCua/yqeq1gf9Ag/wBwVYBpXBi0GjNJmgCWkpaSutkCUYpTSVixhRRS00gAUtJS1pEQtFFFUIOvFfK2vXc6NPCOGikeOTHQFWIP8q+qa+TfiAXt/HGvWsbFYjeOSo9+f61nUhzWOjD1OW67nIzTl5Qc9DmtXRpmmupVkcsXG45Pesl49xyOlS2bm2nD8+maUo3jZFwk1O7O4t4LeVlLvtC8cevetXU9YbS9NtrnTrm4RoZQHXorKe1c1ZXkON3G7ufWk1zVYJdPFnG2XZwWwegFcsYNyR3SmlBnokvjiO6trCRLqN4LudoZI2wJIdpUgnHY5x+FbPhq3WHxrrTqWzMiO2T6M39K8CeaZYkiVvkVtyjvk+9dn4f8Y6taa3eauipLbQRQpdxkHPl5C7h756/WtZ0tNDmjVvufRA6UoqKCZJ7eOaNtySKGUjuDzUq1gDJVqZelRLUo6U0ZSHipBTAKeKpGTFpaSiqJFpGOFJ9qKZKf3L/7p/lRcEiGwGLCAH+4DViorddttEvogH6VLUlPcCaSlpKBE9JRRXY2ZgaSiismMKM0UU0wF60opBSiriAooooqyQr5X+KMSx/EbWQveVW/EqDX1RXzb8a7Rbf4gSSr/wAvFvHIfqAV/wDZRSZpS3POGwBikUqQQaZJUfzHpUmrZZC4BAdgD2FJGijJOfrmmCVUtypVmmDZDZ+UL/jUXmtuznmgdzVs7UNc+bIcIgyB6mvWvhRpFpqPgjUFubZD9rmkjZyo3FCB3+teV6av2iQRs20MMEgZxx1r3L4XwrbeDbONc4ZRIcjH3smuepLQ3itiz8Pb+b+y7jQr1ib3R5jbPn+JP4G/L+VdkK4vV7ddA8c6fr4O221ECwu+wD/8s3P5YrtlFZPuJj1qdaiWploRjIeKcKQU4VSMmFFFLVCEqOYZt5R/sH+VS4prj5G+hosCepHCcwRkd1H8qkqKz/48oD/0zX+VTYpWG3qJRS4oxRYVySjFFFdTJCkopKhsBaTNJS1Nxi5pRTaUHmrg9RMfRTWYIpZjgDrVaHUrScHZMpI7Z5rRyS3BRb1SLdfPnx2tvL8XWdxuz51mBj02s3+Ne6y6pbxpuBLDg5Hucfzr57+MerrqnjQwoMLZQrCc/wB4ksf5io54vRGlOEk7tHmzio8Y5qQjmmn0qi2NzxzTUTe3HI9TTiMnHYVNCOcY69qAS1NC1DxQM65yFJyPpXv3gsXNrpNna3iLHOlpFuRegwCB/KvFNMRDJHlQ65+ZT3HpXtWh30d5N9oAaNjGqbD04J6H8a4as7aM76dNvVG74g0tdc8PXlh0eWM+W391xyp/AgVH4N1S71bw7DNqCLHfRM0FwqnOHQ7Tn34z+NacLZGDWFAf7F8ayRfdtNYTzE9BcIPmH/Alwf8AgJpRd0YTR1irmplUioVbFTo2RTOeVx4FLijNLVoyYUUUVSEFNlO2F29FJp1QXpIsLjHXy2/lTGtx1uuy2iT0QD9Klpqf6tfoKcKEDDFLiiinoIWilorWwhKSlpKhgFFGaM1OgwoFJmkJwCaL2CxzXiLWxFG1qrlS8ixEj3rg/DctxD43jgnvXJ2MpikB+cdQVPQ0/wAXXrLqS88fbENR6bJ9n8cwJvaESSNiNxuR8g8o38LeorFu+rPQUVFWR2gbbpzFm+5C4z/uvXzl4l1D+0/EWo3vaad2H0zx+lfQGq3UNloV/JO2I0hu1POM89P1r5we2dw7rhlU9c1rh46NmdR20Kp6008fWlYlTgimGTmugxFxjjvUsRAOScZ6k96gJzSqSeg79aATsdJpscFwLOO3ufLvJrjytsn3Oehz1HpXbwjW9CkUXFrOv914vnU4+lch4BS0fxbZi8CbRkoH/v44Ne+SxeXLZsBj97t/NT/9auSslezR2UJtK6OX0zx6FAS4GcevBrYu9V07X7WJfNaCe3lS4ilUjKMp/qMg+xrbk060uRie1hl/30BrE1DwPa3Est3YgQSiMCOFPlQnvke/Subkt8LNXOm37yLtv430zzRFM7KP+eu3AP4V1NrPDdQJNBIskbjIZTkGvEn8uMvDMNrqTlT1HPINdX4MlnivYIYb3yIyfntphuEi+qns1EZu9mGIwcVBziemAUuKcoGKUj3rujT0ueRcZilxRS0WATFNkTzI3Q/xAin0UWQEFu4ktonHQoD+lTVDagC3AHQFh+pqcUJXB7iUYpaKdgDNBNNzRRzBYU0hpaaal3BDS2KbuOaCaUdKzLFzSSH9230paZKf3bfSgFueLeN22XTsOqzqf1p6SfZfGtu294VlnXqN8UhI/wDHWqLx4MTXPs4NMnm8nxDZzbngDvFmRBvjfpw47H0NS1od/U3PiHfRWPhi5WWNZDPcPEinsWGc/hivFF3rDJNGiO2CuwsNvI6465FejfFydzd2tsCdgkZ8e5Va81YgjDLn3xXdh4L2Zx1pe+VJY2VyHcMe+BURQetPkC5JDFTUTNIcZYEeoNa2MrgUUHuakiZopFfy1eNTlozxuHpmhfkADSLk08eUTyC/1o5QuavhnV4tD8QW2pTQrJFHJlk7hTwce4r6KfVNOntreSOSTaZo2U7exI/oa+YJySuAu0dhivRNM1bSV0+xjl16aKRQpkUlsKQPp64rkxMNmb0Zbo9xS9sD/wAtyP8AgJqxFeWQbIuV/EEV5LFrelnGzxUB/vH/ABFXItZtjjy/Fdof95l/wrks0dDhF9TU8Y6XbQ6wupoDJbSMJJTFwVCj58/8By31WtWDwfHOjKL+JYSUeG4gPLr9OgPTketYceqyyxlB4i0uRSMFWdOR+dVvD+oahDFPpSajpriyYRxs0g+eMjKkHPPHH4UrJ62NeeaSipWO2TWYbGZLeTVFYxIUcNtyzf3j71q6LqEd6Cv2uO4kQclSBkZ9BXBNp9zNK0rW2mzMxySJDz+taGnR6lp7s9rpNorMMEpKeaIScZXMqlKLWm56LgHvSba49dV1peW0lT/uyn/CpV8Q6og+fRpT/uyf/Wro9vHqjl+rS6HV7aNvvXLf8JJe/wAWk3QHs4qK68UyxWrn7DeI7DahwD8x4Hen7eHYPq8zp7VSbZTjG4lvzJNTgGuXj8URRRoht70bQBzF/wDXqZfFtp/GLhfrA1JVoCdCp2OiwaTmsEeLNO/iuCv+9Ew/pUg8VaYf+X2IfXIqva0xexqdjXHQUtNQho1I6EA06kiB4GaRhxTHmWLGQTmq82q2kELyTSLGqZzvOOgz/KtHKNrCUZPVD2zmkyTxVPQte0vxNYveaTdLcQLIY2YKRhsA45HoRWk7QwjMjqn1NZ+zZfN0GKppXjLIQKyb7xZpNgShm8yQfwRjJ/KsO48V6xf/ACabY+Up6PL1/Kk+Rbs0jSqS1scr460xt90ZCEBG4E8VPFYaLdWNjrMl/JbPFAgZlYbZCMcEVieJbXWdQnk+3TvKYz0AwBXPW1lLNIlmzt5RkHyFjt54BxWe6Oy2upofFO8sr6Sya2mDuBvO3pggAc/8BrzhiFXA/Qmun11Lf7YLOOVTNHI8ZReR8ucfSuemtynVDmu2hKMYJXOOrCTk2kUn6feY+2KqsMyBRySemKuOq91P61qaLpFzchriICOIqVVzjJPoM9PrVVKkYq7ZEKUpO1jISML82wn3yKeTxxx+VWrm0a0naCUMki9RnIqtIOPvH9K05o20ZDjJdCJFEsqrw3PcV0kWgTSgMGHI/uisfStPlv75Ioz83X5ugFem2ts6xRxhNxCgHA61w4qry25WduFo81+ZHIN4ckXguCcf3aibw7MpyzIPQYOT+tehjTQfvkLn+EdaemlMB8iKq+p61xfWWdn1ZdDzY6BeAZ2oB7tVeXSrqGWNzbuwJ2kAjmvS20uUsdijjuaiGhyySmSY4VegHNWsTbcl4XsefLZXGcLb3Cn2bP8ASneXfxdHuVPoCf8AGvQRp7fdjXC92Ip6aZE7bQhd/XoKX1ldh/Vn3OCiudWjORd3yD1Ejf41YTXdcjOI9Zv/AKec3+Nd4+j4QsVCrVdrGJRtjgV27kjij6wn0B4ZrqcpH4p8UoQF1q8JPQFyanj8Y+K2dGOrSEocqHGcH16V0TaaknHlhT329KcNNQrsEO36d6TrpdA+reZjL8QvFMRw19A/+/Gn+FWE+JviNT8yWUn1hH9DV4aFFnfImQKqXGlxt8qxhV+nWmqsX0E8O11Jo/ihq3/LTSrCQd8KR/WrMfxObOJvDcDf7khFZsegQHDCID3I60P4eSVgBEgUe1HtIdhewl3PcdAnN34d024zkyWsTE++0ZrSCn0rhNC8YaPo2l22lyzNuigjMIxndlQSox3BJ/Cp5vF2pXxKaZp7qp6STfL+nWuzmglqecqE5PRHV3rw28DzzyrGiKSSx4Feca74l0y+ZrezuBOJ0KkpEWK5GD9OKtXeia3q6M19dykY+5GNo+nrV7RvDFjpkaTTeWmDyDyawm1J3R1U6apq7dzO0J7vTNJj03QtMS1hHLysNpkbGNxA5J/GtJPDOpaid1/ezMD1RTtX9K3LnWtL0uEuzRRoB9+Vgg/WuJ1n4t6fAWisVlvJOg8sbE/M8n8BVaPd3Fzv7Mbep19r4c0vTlwypu9AMk1DqfibRdBiJnmt7fHRWO5z9FHNeIav8TNd1N3hjlNuhODHbDB/Futc632meMzTQPvbkvO+0f4mqUbeROst3c7DxV8Qk1G/c6fDI/GN0g2599orltP1S5m1m0lnmYos6FsHaijPes8h2XYzfJnpGNoP17mjy93H8PYdhQ+VaI1jTm9XoWtReE+I7y4jkEiG6dkKcggtnOa13iidMsimsKIGGRJIztdTlT6GthTtiAB4Iz+dRJ3OinBRMi9hjBOFxV7T9SFpbRxGEsq+jYqnecyY9TSquBRKzVmEI+82aFwbfUrwzrEyAgDaTnmmz2MCRkhfzplodp/GpLxzsPpUreyKaVmP8OT2NjeyzXW4DbtUKue9dhH4j0tyAtyI190IrgEQeQkm9SXzlR1XBxzTsVNSmpO7NKWkT0631zRFX/j+gL/7RI/nVoaxpjH/AJCNqfbzABXlGPxpcVi8Ou5tznrw1LTnAEd5as3/AF1FSLPbBTuuIXJ6BXBrx0jjpRkjpU/Vl3HznsaWwl+YlQp54NWEEcI2xAM/1rxgSSDpI4+jU9Lq5i5S4lU+zkUvq3mHMevyWryNvnb5f7oFSJbqwKwxjHckcV5GNY1ILgX9zj0801Yj8SazEAE1KcAdi2afsJdxXPVRZRRdeWPIqK6hO0E9P7ucV5ovi3XEORfMc+qg5/Snf8JjrBOXljf/AHoxS9hK4XPQxA04ABAHtTzYRwLkr5jn8hXCQ+PdUiTZ5VsffYQf51L/AMJ5dtjzLWJvYMRQ6UydDsTbPMcKig+lTLYGJf3j8nsOtclb/EPyQc6aD7iX/wCtU/8AwseBjl9Ok/CQf4VDpVOiGmjutG8G6XFo9t9uWP8AeRo+OjZIB6jnNaMk6aJbkwX0DRKPvXqjI/4ECM/jXld98Rtb1JBbaVZi3jC7QVBdwPr0FcfeTXl9cE313Lczd0DbyP6CvSSb2PIevxO56Zr/AMUZrdGitb+2mk6EWtu2B/wJjj9DXH3Xj/X7i0iiZvsylceeU5k99x4H4VgrDHb8yyJCewT53/Pt+VNN5GjEww73/wCesxLt+tJ29TSFOXTQluJJrsC4llmvJieclto9y5/pUEcixBg8pjD/AHlhbJI9N3YVDLNPcHMsrPj1PH5U0Jj0p30saxoK+osD/ZJ5ZLQGMP2Y7iKRzJK26RmY+rHNPCj0pwFS2bxgloiIJ0p+2pAKXA9KVy1Ej2+1aGGEcfGQVFVdvFabxFI4AeCF5z0xjj8aVwcTGuYwJ1znBNOAyOlLJOJb5VKgqhyVqQjJ9KbFTW5JaKhb5vXiodSl25ReKk8zylUhQpXO5sn5gcY/L+tVJ90zb+voPWhbkVHpYkhG2JQfSpMDrVyLS2liEkU8HlEcNNKqMf8AgOcipBpeMbr+yX/trn+QpM1hsjPHNLwalmiEUpRZUlA/jTOD+YFRgGkXYTFLjFOxRTCw00gFOopCEpKWkJoAQ5pv0p+abxTEJ1o9qPrQTTEJj3pKUmkzzQDHy6jcTRiJ5ZGT+6PkT8hUHmSbNgOxP7qDApQvFOA4qnK5jClGJGEFOCU/tSjFTc1URu0CnbcU4DJowaVyrCAUYp46UuOaB2G7c0Ac8U6lpDsIFyRWxehXtAMBjjvWXHGZHCrjPXk4HHNXJJfMgBHQjrSa1Im7IyoIlRpDj5ietTbcU2Pnf9akAz3qmFL4R8CB3KkZBWnGz2kuRwOhNLbDE4+lWbt8QHNJPUVQzycnNFJHymad9aGaR+FCfjRj3pSOM0cjrSGJRRRTATijilwDSYoEGMdKQ4AyadSHmmIbkUmB9adzim4GOpoAQgn8KQ8U7pTTjrTJYlJSgCigRftdA1O6QSi1MUX/AD1nIiT82xUV9ZJZOqJeW9yx+95BJC/iQM/hVe5vbm7k33E8kzersWP61FmgSHjHelyKZ9KdkCgq4/qPSlqPNKG5oGmSDpS5z7VHmlzzSKuScUYpuTQCe/WkO5Jxgg1KzZhG01Xzz0qaEb8rQRUV0QRfx0+kZSjn0pM02FLSJbs8edz6Gkv2xER2FJZnM4+hpuqhliPv0FJbk1SC3/1KmpcA803akWFR96gDnGM8UoIznNDNo7IXGBTSOKUmkyKQw70ECl7cUZxQIbkUnBpetJigQh+tJTqTFMQmaD70uPWk+tAhpNJTsD0pppiaE+tJ1pcZpCKYiAGlzgVGM07JqrGSY8HFLmo804HNKxQ/NKGzTfrRmgdx+7FODelR5FLnmlYaZLnijOOtR5pQetKxVyTd6VNbN+/XHequantXJlWJVGXdfmxkjHYfWh7CbL17blbcuFOAQTWdnpiuzvdOLeHp5UIDJHk1xAbHU1EJcyKa5TQ00F71APQ5pmsNuukjB4HJq34fAkuJyFywTj86rahaypdmW7zEJAdhAzyBxTXxWInsimDTt3NQg0u7FVYpSJt1IXqLfRnJosHMS7wDgUF8gc0wY9aOO9AXHhjSk1Hu6ikDcUWHcl3UbqjoJ4osFx5IoyAKj3e9JnjrRYXMSg/hSZNR5ANBYUWDmH5pDyaZupCeKBXK3I6UuTTQfalzmtDG44ZzzS5wKbuFGRQFx+fagGmZxSbsHJpWHcl96Nw/Goi49abvxRYOYsbxS719arb/AMqXORRYOYmMgFXtDe2l1hPtMwiiiRpGY9OBWSzED+lVZVLnrinyp6MzlUa2PTpfEGnLZTxxM1wvlsWWPjj8a4IE7FkKkI+dpI64NZpExAAZce4qaNHCBWcnHQdhSjSjBaC9tUm/eR1nhG6t49VPnyrGjJgFjgE56V0/iXS7a/0uaeCZBJCPMUbgc46/pXlzXFzEECMxWMkoAfuk9x+Qoa+1CZy/mOjNnc+7k569PrUujeXMmV9ZklyOJbVi2DnFP71UiJRQM1Mr+9U0XGRMDS5FRbs96M1JVyXtmkBqPd60u7Oadg5h+aXNR5pN2eaVguSbqA2ajDc+tG6nYLj80bqZuoJ5oC48txRkmmZpN3FArkmabmm7qbmiwXISeKXcfSm9aUVZkANFHFFABu5pCTS4zRtAoDUbmnDrnNGKQ4oAXOBmmmQ9qMYpuM0xBuyetAA65ox7UAUCHdKUNxUZyKbk0rBclzS1Dk+tKGPemFybIpQ1Q7qeGFKw0yUNin7s1Bu96cGx0pWL5iXOaTvTA/NLu5pBcfmlzxTd1GeOaY7i5FFJmk70CuLmjcR0pCaQ9KAuOozxim54pN1FguPzSZpm6lzxTsK5/9k=;" vertex="1" parent="1">
          <mxGeometry x="60" y="420" width="160" height="160" as="geometry" />
        </mxCell>
        <mxCell id="8UH31n_FKA3EFoD4OGH5-8" value="" style="shape=image;verticalLabelPosition=bottom;labelBackgroundColor=#ffffff;verticalAlign=top;aspect=fixed;imageAspect=0;image=data:image/jpeg,/9j/4AAQSkZJRgABAQAAAQABAAD/2wBDAAgGBgcGBQgHBwcJCQgKDBQNDAsLDBkSEw8UHRofHh0aHBwgJC4nICIsIxwcKDcpLDAxNDQ0Hyc5PTgyPC4zNDL/2wBDAQkJCQwLDBgNDRgyIRwhMjIyMjIyMjIyMjIyMjIyMjIyMjIyMjIyMjIyMjIyMjIyMjIyMjIyMjIyMjIyMjIyMjL/wAARCAEAAQADASIAAhEBAxEB/8QAHwAAAQUBAQEBAQEAAAAAAAAAAAECAwQFBgcICQoL/8QAtRAAAgEDAwIEAwUFBAQAAAF9AQIDAAQRBRIhMUEGE1FhByJxFDKBkaEII0KxwRVS0fAkM2JyggkKFhcYGRolJicoKSo0NTY3ODk6Q0RFRkdISUpTVFVWV1hZWmNkZWZnaGlqc3R1dnd4eXqDhIWGh4iJipKTlJWWl5iZmqKjpKWmp6ipqrKztLW2t7i5usLDxMXGx8jJytLT1NXW19jZ2uHi4+Tl5ufo6erx8vP09fb3+Pn6/8QAHwEAAwEBAQEBAQEBAQAAAAAAAAECAwQFBgcICQoL/8QAtREAAgECBAQDBAcFBAQAAQJ3AAECAxEEBSExBhJBUQdhcRMiMoEIFEKRobHBCSMzUvAVYnLRChYkNOEl8RcYGRomJygpKjU2Nzg5OkNERUZHSElKU1RVVldYWVpjZGVmZ2hpanN0dXZ3eHl6goOEhYaHiImKkpOUlZaXmJmaoqOkpaanqKmqsrO0tba3uLm6wsPExcbHyMnK0tPU1dbX2Nna4uPk5ebn6Onq8vP09fb3+Pn6/9oADAMBAAIRAxEAPwD3nqKjdc1KBTSKwkjROxUkjzUBSrzrkVAy1k0bwmV9lOWPmpdlPVOaVi3MI4x6VZUYpqripQK1pxuznlK44UUUV0mQUUUUAQzDKmsa78uMF5TtjXlj7Vc17VIdF0a71GdlCQRlsMcbj2H1NfNOv+L/ABR4l1KW8t7uW0tuVjgibChff1Nck43kddC6V0e3XUFjcLuN0yqRkHyzWNd6JpTqS2sBDz1hNeTaF4317TL5YNSuRJbIMFJh2HofWvTLhodS0qK7i5jmjDxt6ZFQ4OJ0xlzHL6/ptpLD9mg1Oxdsgus5K8dqb4V0tYjcKbaBFDBRJE+9ZOO1Ou9FQxXMlykczyYbLDOMDAxXUeH9DQoFKKkYHCqMU3K0bAo+9qaFnp8axgIqgf7IrUhsQD0q1bWCQLhRV1IgO1ZXNbpFWOzHTFWktgO1WUjqZY6EjOVSxVW3HpTxb+1XFjqQIKrlMXVZQ+ze1H2UelaAjHpS+XRyk+2ZnfZh6Uhtge1aJQAVDIQDgUcpSqtmJdzwQRGZ52jjUlSfJ3ZPTrmq6yK6b5opmiIyskcWcj3Gcir6rB/ZYWQqdxbOfqarRavYWg8qSdVUcc0jdXs2iH7NZ3C7kebHtH/9eqcun2MZJaecf9sf/r1ozajocx3fbIkc/wASNg1RudRtOQmoWzjsHHP6UAtTvaQ06kNd0keWMIqJl5qamEVztFJkeKeq0AU8CkkNsUCniminCuiCIYtFFFaEhRRRQB4h8d9alW503REZlidfPkAOA3OB/I157JfRjTVaGPDL8uB0rv8A4xaLJN4usdRnBa0aDyP90g5/XNcLcQx2yrBAF2Pj5duSa4ptcx6mHi1C5kX919us45HgyYuHfGMjtXqvhEQ3XgyySBywjQoc9jk8VxU2g315aBYIgI5F5B4x9c103hUr4X02Gyu3DSzykkDkIPXNRKaasjRU2pXN+fTZRayM7Z+U9q6zT7UQQqMDOK8/Hjmzllv4bjEcEbbYmHJbBq5ofxDS41W6W7YfZGP+jBE+Yc9D+FLoNrseiBOKlRajikSVAyEEHmpVpJGUmyVAKmUVEtTqKtI55DwKeBTVFSDpVGLYYpQKWinYm4hUHtUZhQ/w1LRRYE2jMt7KJ7UBkBGW/maik8P6dLnzLRGq9p4P2GInqQT+Zqzip5TV1ZX3OebwppJ6WSioW8IaWf8Al0H510+KQihxGq811JqQ0tJXZI5hppMUporBlCUClxRQkAopw6U0U6toITFoooqyQqOe4htYWmnkWONcZZjgDPFSV5D4q8YPqcs8KNtsUbaqf3sHqayq1ORG9Ci6srdEdb46vLAaWYpVt7iYMCsEnf8ALpXmCpa2xLoir3yeTXPan4jVpxmVuvzHPJqjPeXN2TuYxpgHryQa4pRlN3Z6dJxpR5U7nQ3XiJVkENvmSVjtUD1NbNn4F1DUXWfWLwwgdIYuSPqelef2oEN0jjqGBB+hr36C5iubaKeFw0cigjFDSjsPmctzy/xD8Nbq0Z59LJuLc87Wb5lP9axfDGixTa8ianc/ZYYHxKnOS2cbcjpXuV78tk3IH3f5iuM8J6Vbjx14gZtrR7YpPKZQQWYtzz6Y/WrTbRDaR3WnabbaZbCC1QqmcnLEkn8avLTccU4CpMW7ky9KlWol6VMKpGEiRakFRiniqRkx1FJS1RIUjfdb6GlpD0NFwIbP/jyg/wCua/yqeq1gf9Ag/wBwVYBpXBi0GjNJmgCWkpaSutkCUYpTSVixhRRS00gAUtJS1pEQtFFFUIOvFfK2vXc6NPCOGikeOTHQFWIP8q+qa+TfiAXt/HGvWsbFYjeOSo9+f61nUhzWOjD1OW67nIzTl5Qc9DmtXRpmmupVkcsXG45Pesl49xyOlS2bm2nD8+maUo3jZFwk1O7O4t4LeVlLvtC8cevetXU9YbS9NtrnTrm4RoZQHXorKe1c1ZXkON3G7ufWk1zVYJdPFnG2XZwWwegFcsYNyR3SmlBnokvjiO6trCRLqN4LudoZI2wJIdpUgnHY5x+FbPhq3WHxrrTqWzMiO2T6M39K8CeaZYkiVvkVtyjvk+9dn4f8Y6taa3eauipLbQRQpdxkHPl5C7h756/WtZ0tNDmjVvufRA6UoqKCZJ7eOaNtySKGUjuDzUq1gDJVqZelRLUo6U0ZSHipBTAKeKpGTFpaSiqJFpGOFJ9qKZKf3L/7p/lRcEiGwGLCAH+4DViorddttEvogH6VLUlPcCaSlpKBE9JRRXY2ZgaSiismMKM0UU0wF60opBSiriAooooqyQr5X+KMSx/EbWQveVW/EqDX1RXzb8a7Rbf4gSSr/wAvFvHIfqAV/wDZRSZpS3POGwBikUqQQaZJUfzHpUmrZZC4BAdgD2FJGijJOfrmmCVUtypVmmDZDZ+UL/jUXmtuznmgdzVs7UNc+bIcIgyB6mvWvhRpFpqPgjUFubZD9rmkjZyo3FCB3+teV6av2iQRs20MMEgZxx1r3L4XwrbeDbONc4ZRIcjH3smuepLQ3itiz8Pb+b+y7jQr1ib3R5jbPn+JP4G/L+VdkK4vV7ddA8c6fr4O221ECwu+wD/8s3P5YrtlFZPuJj1qdaiWploRjIeKcKQU4VSMmFFFLVCEqOYZt5R/sH+VS4prj5G+hosCepHCcwRkd1H8qkqKz/48oD/0zX+VTYpWG3qJRS4oxRYVySjFFFdTJCkopKhsBaTNJS1Nxi5pRTaUHmrg9RMfRTWYIpZjgDrVaHUrScHZMpI7Z5rRyS3BRb1SLdfPnx2tvL8XWdxuz51mBj02s3+Ne6y6pbxpuBLDg5Hucfzr57+MerrqnjQwoMLZQrCc/wB4ksf5io54vRGlOEk7tHmzio8Y5qQjmmn0qi2NzxzTUTe3HI9TTiMnHYVNCOcY69qAS1NC1DxQM65yFJyPpXv3gsXNrpNna3iLHOlpFuRegwCB/KvFNMRDJHlQ65+ZT3HpXtWh30d5N9oAaNjGqbD04J6H8a4as7aM76dNvVG74g0tdc8PXlh0eWM+W391xyp/AgVH4N1S71bw7DNqCLHfRM0FwqnOHQ7Tn34z+NacLZGDWFAf7F8ayRfdtNYTzE9BcIPmH/Alwf8AgJpRd0YTR1irmplUioVbFTo2RTOeVx4FLijNLVoyYUUUVSEFNlO2F29FJp1QXpIsLjHXy2/lTGtx1uuy2iT0QD9Klpqf6tfoKcKEDDFLiiinoIWilorWwhKSlpKhgFFGaM1OgwoFJmkJwCaL2CxzXiLWxFG1qrlS8ixEj3rg/DctxD43jgnvXJ2MpikB+cdQVPQ0/wAXXrLqS88fbENR6bJ9n8cwJvaESSNiNxuR8g8o38LeorFu+rPQUVFWR2gbbpzFm+5C4z/uvXzl4l1D+0/EWo3vaad2H0zx+lfQGq3UNloV/JO2I0hu1POM89P1r5we2dw7rhlU9c1rh46NmdR20Kp6008fWlYlTgimGTmugxFxjjvUsRAOScZ6k96gJzSqSeg79aATsdJpscFwLOO3ufLvJrjytsn3Oehz1HpXbwjW9CkUXFrOv914vnU4+lch4BS0fxbZi8CbRkoH/v44Ne+SxeXLZsBj97t/NT/9auSslezR2UJtK6OX0zx6FAS4GcevBrYu9V07X7WJfNaCe3lS4ilUjKMp/qMg+xrbk060uRie1hl/30BrE1DwPa3Est3YgQSiMCOFPlQnvke/Subkt8LNXOm37yLtv430zzRFM7KP+eu3AP4V1NrPDdQJNBIskbjIZTkGvEn8uMvDMNrqTlT1HPINdX4MlnivYIYb3yIyfntphuEi+qns1EZu9mGIwcVBziemAUuKcoGKUj3rujT0ueRcZilxRS0WATFNkTzI3Q/xAin0UWQEFu4ktonHQoD+lTVDagC3AHQFh+pqcUJXB7iUYpaKdgDNBNNzRRzBYU0hpaaal3BDS2KbuOaCaUdKzLFzSSH9230paZKf3bfSgFueLeN22XTsOqzqf1p6SfZfGtu294VlnXqN8UhI/wDHWqLx4MTXPs4NMnm8nxDZzbngDvFmRBvjfpw47H0NS1od/U3PiHfRWPhi5WWNZDPcPEinsWGc/hivFF3rDJNGiO2CuwsNvI6465FejfFydzd2tsCdgkZ8e5Va81YgjDLn3xXdh4L2Zx1pe+VJY2VyHcMe+BURQetPkC5JDFTUTNIcZYEeoNa2MrgUUHuakiZopFfy1eNTlozxuHpmhfkADSLk08eUTyC/1o5QuavhnV4tD8QW2pTQrJFHJlk7hTwce4r6KfVNOntreSOSTaZo2U7exI/oa+YJySuAu0dhivRNM1bSV0+xjl16aKRQpkUlsKQPp64rkxMNmb0Zbo9xS9sD/wAtyP8AgJqxFeWQbIuV/EEV5LFrelnGzxUB/vH/ABFXItZtjjy/Fdof95l/wrks0dDhF9TU8Y6XbQ6wupoDJbSMJJTFwVCj58/8By31WtWDwfHOjKL+JYSUeG4gPLr9OgPTketYceqyyxlB4i0uRSMFWdOR+dVvD+oahDFPpSajpriyYRxs0g+eMjKkHPPHH4UrJ62NeeaSipWO2TWYbGZLeTVFYxIUcNtyzf3j71q6LqEd6Cv2uO4kQclSBkZ9BXBNp9zNK0rW2mzMxySJDz+taGnR6lp7s9rpNorMMEpKeaIScZXMqlKLWm56LgHvSba49dV1peW0lT/uyn/CpV8Q6og+fRpT/uyf/Wro9vHqjl+rS6HV7aNvvXLf8JJe/wAWk3QHs4qK68UyxWrn7DeI7DahwD8x4Hen7eHYPq8zp7VSbZTjG4lvzJNTgGuXj8URRRoht70bQBzF/wDXqZfFtp/GLhfrA1JVoCdCp2OiwaTmsEeLNO/iuCv+9Ew/pUg8VaYf+X2IfXIqva0xexqdjXHQUtNQho1I6EA06kiB4GaRhxTHmWLGQTmq82q2kELyTSLGqZzvOOgz/KtHKNrCUZPVD2zmkyTxVPQte0vxNYveaTdLcQLIY2YKRhsA45HoRWk7QwjMjqn1NZ+zZfN0GKppXjLIQKyb7xZpNgShm8yQfwRjJ/KsO48V6xf/ACabY+Up6PL1/Kk+Rbs0jSqS1scr460xt90ZCEBG4E8VPFYaLdWNjrMl/JbPFAgZlYbZCMcEVieJbXWdQnk+3TvKYz0AwBXPW1lLNIlmzt5RkHyFjt54BxWe6Oy2upofFO8sr6Sya2mDuBvO3pggAc/8BrzhiFXA/Qmun11Lf7YLOOVTNHI8ZReR8ucfSuemtynVDmu2hKMYJXOOrCTk2kUn6feY+2KqsMyBRySemKuOq91P61qaLpFzchriICOIqVVzjJPoM9PrVVKkYq7ZEKUpO1jISML82wn3yKeTxxx+VWrm0a0naCUMki9RnIqtIOPvH9K05o20ZDjJdCJFEsqrw3PcV0kWgTSgMGHI/uisfStPlv75Ioz83X5ugFem2ts6xRxhNxCgHA61w4qry25WduFo81+ZHIN4ckXguCcf3aibw7MpyzIPQYOT+tehjTQfvkLn+EdaemlMB8iKq+p61xfWWdn1ZdDzY6BeAZ2oB7tVeXSrqGWNzbuwJ2kAjmvS20uUsdijjuaiGhyySmSY4VegHNWsTbcl4XsefLZXGcLb3Cn2bP8ASneXfxdHuVPoCf8AGvQRp7fdjXC92Ip6aZE7bQhd/XoKX1ldh/Vn3OCiudWjORd3yD1Ejf41YTXdcjOI9Zv/AKec3+Nd4+j4QsVCrVdrGJRtjgV27kjij6wn0B4ZrqcpH4p8UoQF1q8JPQFyanj8Y+K2dGOrSEocqHGcH16V0TaaknHlhT329KcNNQrsEO36d6TrpdA+reZjL8QvFMRw19A/+/Gn+FWE+JviNT8yWUn1hH9DV4aFFnfImQKqXGlxt8qxhV+nWmqsX0E8O11Jo/ihq3/LTSrCQd8KR/WrMfxObOJvDcDf7khFZsegQHDCID3I60P4eSVgBEgUe1HtIdhewl3PcdAnN34d024zkyWsTE++0ZrSCn0rhNC8YaPo2l22lyzNuigjMIxndlQSox3BJ/Cp5vF2pXxKaZp7qp6STfL+nWuzmglqecqE5PRHV3rw28DzzyrGiKSSx4Feca74l0y+ZrezuBOJ0KkpEWK5GD9OKtXeia3q6M19dykY+5GNo+nrV7RvDFjpkaTTeWmDyDyawm1J3R1U6apq7dzO0J7vTNJj03QtMS1hHLysNpkbGNxA5J/GtJPDOpaid1/ezMD1RTtX9K3LnWtL0uEuzRRoB9+Vgg/WuJ1n4t6fAWisVlvJOg8sbE/M8n8BVaPd3Fzv7Mbep19r4c0vTlwypu9AMk1DqfibRdBiJnmt7fHRWO5z9FHNeIav8TNd1N3hjlNuhODHbDB/Futc632meMzTQPvbkvO+0f4mqUbeROst3c7DxV8Qk1G/c6fDI/GN0g2599orltP1S5m1m0lnmYos6FsHaijPes8h2XYzfJnpGNoP17mjy93H8PYdhQ+VaI1jTm9XoWtReE+I7y4jkEiG6dkKcggtnOa13iidMsimsKIGGRJIztdTlT6GthTtiAB4Iz+dRJ3OinBRMi9hjBOFxV7T9SFpbRxGEsq+jYqnecyY9TSquBRKzVmEI+82aFwbfUrwzrEyAgDaTnmmz2MCRkhfzplodp/GpLxzsPpUreyKaVmP8OT2NjeyzXW4DbtUKue9dhH4j0tyAtyI190IrgEQeQkm9SXzlR1XBxzTsVNSmpO7NKWkT0631zRFX/j+gL/7RI/nVoaxpjH/AJCNqfbzABXlGPxpcVi8Ou5tznrw1LTnAEd5as3/AF1FSLPbBTuuIXJ6BXBrx0jjpRkjpU/Vl3HznsaWwl+YlQp54NWEEcI2xAM/1rxgSSDpI4+jU9Lq5i5S4lU+zkUvq3mHMevyWryNvnb5f7oFSJbqwKwxjHckcV5GNY1ILgX9zj0801Yj8SazEAE1KcAdi2afsJdxXPVRZRRdeWPIqK6hO0E9P7ucV5ovi3XEORfMc+qg5/Snf8JjrBOXljf/AHoxS9hK4XPQxA04ABAHtTzYRwLkr5jn8hXCQ+PdUiTZ5VsffYQf51L/AMJ5dtjzLWJvYMRQ6UydDsTbPMcKig+lTLYGJf3j8nsOtclb/EPyQc6aD7iX/wCtU/8AwseBjl9Ok/CQf4VDpVOiGmjutG8G6XFo9t9uWP8AeRo+OjZIB6jnNaMk6aJbkwX0DRKPvXqjI/4ECM/jXld98Rtb1JBbaVZi3jC7QVBdwPr0FcfeTXl9cE313Lczd0DbyP6CvSSb2PIevxO56Zr/AMUZrdGitb+2mk6EWtu2B/wJjj9DXH3Xj/X7i0iiZvsylceeU5k99x4H4VgrDHb8yyJCewT53/Pt+VNN5GjEww73/wCesxLt+tJ29TSFOXTQluJJrsC4llmvJieclto9y5/pUEcixBg8pjD/AHlhbJI9N3YVDLNPcHMsrPj1PH5U0Jj0p30saxoK+osD/ZJ5ZLQGMP2Y7iKRzJK26RmY+rHNPCj0pwFS2bxgloiIJ0p+2pAKXA9KVy1Ej2+1aGGEcfGQVFVdvFabxFI4AeCF5z0xjj8aVwcTGuYwJ1znBNOAyOlLJOJb5VKgqhyVqQjJ9KbFTW5JaKhb5vXiodSl25ReKk8zylUhQpXO5sn5gcY/L+tVJ90zb+voPWhbkVHpYkhG2JQfSpMDrVyLS2liEkU8HlEcNNKqMf8AgOcipBpeMbr+yX/trn+QpM1hsjPHNLwalmiEUpRZUlA/jTOD+YFRgGkXYTFLjFOxRTCw00gFOopCEpKWkJoAQ5pv0p+abxTEJ1o9qPrQTTEJj3pKUmkzzQDHy6jcTRiJ5ZGT+6PkT8hUHmSbNgOxP7qDApQvFOA4qnK5jClGJGEFOCU/tSjFTc1URu0CnbcU4DJowaVyrCAUYp46UuOaB2G7c0Ac8U6lpDsIFyRWxehXtAMBjjvWXHGZHCrjPXk4HHNXJJfMgBHQjrSa1Im7IyoIlRpDj5ietTbcU2Pnf9akAz3qmFL4R8CB3KkZBWnGz2kuRwOhNLbDE4+lWbt8QHNJPUVQzycnNFJHymad9aGaR+FCfjRj3pSOM0cjrSGJRRRTATijilwDSYoEGMdKQ4AyadSHmmIbkUmB9adzim4GOpoAQgn8KQ8U7pTTjrTJYlJSgCigRftdA1O6QSi1MUX/AD1nIiT82xUV9ZJZOqJeW9yx+95BJC/iQM/hVe5vbm7k33E8kzersWP61FmgSHjHelyKZ9KdkCgq4/qPSlqPNKG5oGmSDpS5z7VHmlzzSKuScUYpuTQCe/WkO5Jxgg1KzZhG01Xzz0qaEb8rQRUV0QRfx0+kZSjn0pM02FLSJbs8edz6Gkv2xER2FJZnM4+hpuqhliPv0FJbk1SC3/1KmpcA803akWFR96gDnGM8UoIznNDNo7IXGBTSOKUmkyKQw70ECl7cUZxQIbkUnBpetJigQh+tJTqTFMQmaD70uPWk+tAhpNJTsD0pppiaE+tJ1pcZpCKYiAGlzgVGM07JqrGSY8HFLmo804HNKxQ/NKGzTfrRmgdx+7FODelR5FLnmlYaZLnijOOtR5pQetKxVyTd6VNbN+/XHequantXJlWJVGXdfmxkjHYfWh7CbL17blbcuFOAQTWdnpiuzvdOLeHp5UIDJHk1xAbHU1EJcyKa5TQ00F71APQ5pmsNuukjB4HJq34fAkuJyFywTj86rahaypdmW7zEJAdhAzyBxTXxWInsimDTt3NQg0u7FVYpSJt1IXqLfRnJosHMS7wDgUF8gc0wY9aOO9AXHhjSk1Hu6ikDcUWHcl3UbqjoJ4osFx5IoyAKj3e9JnjrRYXMSg/hSZNR5ANBYUWDmH5pDyaZupCeKBXK3I6UuTTQfalzmtDG44ZzzS5wKbuFGRQFx+fagGmZxSbsHJpWHcl96Nw/Goi49abvxRYOYsbxS719arb/AMqXORRYOYmMgFXtDe2l1hPtMwiiiRpGY9OBWSzED+lVZVLnrinyp6MzlUa2PTpfEGnLZTxxM1wvlsWWPjj8a4IE7FkKkI+dpI64NZpExAAZce4qaNHCBWcnHQdhSjSjBaC9tUm/eR1nhG6t49VPnyrGjJgFjgE56V0/iXS7a/0uaeCZBJCPMUbgc46/pXlzXFzEECMxWMkoAfuk9x+Qoa+1CZy/mOjNnc+7k569PrUujeXMmV9ZklyOJbVi2DnFP71UiJRQM1Mr+9U0XGRMDS5FRbs96M1JVyXtmkBqPd60u7Oadg5h+aXNR5pN2eaVguSbqA2ajDc+tG6nYLj80bqZuoJ5oC48txRkmmZpN3FArkmabmm7qbmiwXISeKXcfSm9aUVZkANFHFFABu5pCTS4zRtAoDUbmnDrnNGKQ4oAXOBmmmQ9qMYpuM0xBuyetAA65ox7UAUCHdKUNxUZyKbk0rBclzS1Dk+tKGPemFybIpQ1Q7qeGFKw0yUNin7s1Bu96cGx0pWL5iXOaTvTA/NLu5pBcfmlzxTd1GeOaY7i5FFJmk70CuLmjcR0pCaQ9KAuOozxim54pN1FguPzSZpm6lzxTsK5/9k=;" vertex="1" parent="1">
          <mxGeometry x="70" y="430" width="160" height="160" as="geometry" />
        </mxCell>
      </root>
    </mxGraphModel>
  </diagram>
</mxfile>
